<?xml version="1.0" standalone="no"?>
<!DOCTYPE svg PUBLIC "-//W3C//DTD SVG 1.1//EN" "http://www.w3.org/Graphics/SVG/1.1/DTD/svg11.dtd" >
<svg xmlns="http://www.w3.org/2000/svg">
<metadata></metadata>
<defs>
<font id="CooperBlackRegular" horiz-adv-x="1229" >
<font-face units-per-em="2048" ascent="1638" descent="-410" />
<missing-glyph horiz-adv-x="512" />
<glyph horiz-adv-x="0" />
<glyph horiz-adv-x="2048" />
<glyph unicode="&#xd;" horiz-adv-x="512" />
<glyph unicode=" "  horiz-adv-x="512" />
<glyph unicode="&#x09;" horiz-adv-x="512" />
<glyph unicode="&#xa0;" horiz-adv-x="512" />
<glyph unicode="!" horiz-adv-x="631" d="M82 1064q0 114 51 191q63 96 183 96q89 0 151 -64q83 -84 83 -238q0 -102 -35.5 -219.5t-98.5 -215.5t-103.5 -98t-104.5 116q-126 230 -126 432zM99 186.5q0 90.5 62.5 155t154.5 64.5t154 -64.5t62 -152t-64 -152t-152 -64.5t-152.5 61.5t-64.5 152z" />
<glyph unicode="&#x22;" horiz-adv-x="885" d="M68 1171q0 96 45.5 155t119.5 59t120 -63t46 -152q0 -181 -92 -332q-47 -78 -75.5 -78t-80.5 99q-83 159 -83 312zM486 1171q0 96 45.5 155t119.5 59t120 -63t46 -152q0 -181 -92 -332q-47 -78 -76 -78t-80 99q-83 160 -83 312z" />
<glyph unicode="#" d="M87 379q0 13 30 71.5t55.5 92t68.5 33.5l46 -3q24 0 30 38l7 57q1 7 1 14q-1 27 -31 27l-116 -6q-42 0 -42 31q0 14 29 70.5t55.5 91.5t70.5 35l46 -4q24 0 29 39l6 38q6 48 7 138q1 45 28 64q29 19 95.5 43t97 24t30.5 -30q0 -11 -5.5 -31.5t-16.5 -98.5l-20 -146 q-3 -19 -3 -21q-2 -26 44 -26h52q30 0 40 8.5t14 38.5l5 37q8 55 8 118.5t28 83.5q29 20 95.5 43.5t86.5 23.5q41 0 41 -30q0 -11 -5.5 -31.5t-16.5 -98.5l-20 -146q-3 -18 -3 -24q0 -23 35 -23q72 0 92.5 2.5t27.5 2.5q32 0 32 -33q0 -20 -45.5 -107.5t-90.5 -87.5l-63 7 q-23 0 -28 -38l-6 -47q-3 -19 -3 -25q0 -31 56 -31l98 7q33 0 33 -29q0 -18 -25 -72t-51.5 -90.5t-58.5 -36.5l-64 7q-23 0 -28 -36q-15 -93 -17 -168t-27.5 -95.5t-98 -48.5t-95.5 -28q-32 0 -32 36q0 9 11 63t27 167l8 58q2 12 2 22q0 35 -42 35h-59q-42 0 -46 -41l-3 -22 q-12 -84 -14 -152.5t-27.5 -89t-98 -48.5t-95.5 -28q-32 0 -32 37q0 8 11 62.5t27 166.5l7 44q4 38 4 39q0 32 -50 32l-96 -6q-42 0 -42 31zM536 590q0 -25 36 -25h66q26 0 34.5 7t12.5 34l7 56q3 18 3 23q0 24 -37 24h-66q-26 0 -34.5 -7t-11.5 -34l-8 -56q-2 -12 -2 -22z " />
<glyph unicode="$" d="M68 315q0 110 71 110q38 0 78 -46q11 -13 59 -87q90 -140 265 -140q65 0 106.5 24t41.5 66t-57 74q-19 10 -171 65q-363 129 -363 402q0 153 125 268q97 90 219 114q32 6 38 13t6 36v47q0 40 13 53t53 13h84q39 0 52 -13t13 -53v-48q0 -32 9 -38.5t44.5 -13t65.5 -15.5 t40 -9l87 21q53 0 121 -91.5t68 -180.5q0 -52 -29 -84t-69 -32t-61.5 14.5t-112.5 98t-196 83.5q-45 0 -73.5 -24.5t-28.5 -71t60 -78.5q23 -13 184 -61.5t244 -122.5q106 -96 106 -251.5t-113 -261.5q-63 -60 -147 -100t-134.5 -44t-57.5 -12t-7 -37v-46q0 -40 -13 -53 t-52 -13h-84q-40 0 -53 13t-13 53v46q0 27 -5.5 35.5t-58 15t-138 33t-119.5 54.5t-65.5 121t-31.5 154z" />
<glyph unicode="%" horiz-adv-x="1660" d="M27 1028.5q0 149.5 115 248.5q57 50 141.5 79.5t171.5 29.5q126 0 228 -80q133 -104 133 -253q0 -74 -36.5 -144t-100.5 -121q-122 -96 -288 -96t-265 93.5t-99 243zM326 1157q0 -99 30.5 -176.5t48 -96t45.5 -18.5q56 0 56 77q0 115 -45 219q-28 67 -75 69 q-26 0 -43 -20.5t-17 -53.5zM358 42q0 21 25 58t162 253l389 657q121 211 154.5 279.5t57 86t67.5 17.5q95 0 95 -47q0 -33 -68 -133t-175 -279l-309 -523q-96 -176 -179 -326q-27 -56 -48 -75t-63.5 -19t-75 15t-32.5 36zM843 327.5q0 149.5 115 248.5q57 50 142 79.5 t171 29.5q126 0 228 -80q133 -104 133 -253q0 -74 -36.5 -144t-100.5 -121q-122 -96 -288 -96t-265 93.5t-99 243zM1142 456q0 -100 30.5 -177t48 -95.5t45.5 -18.5q56 0 56 77q0 115 -44 219q-29 67 -76 69q-27 0 -43.5 -20.5t-16.5 -53.5z" />
<glyph unicode="&#x26;" horiz-adv-x="1780" d="M27 530.5q0 116.5 79 202.5q47 52 91.5 74.5t44.5 40.5q0 9 -10 26q-61 105 -61 178.5t42.5 146t112 119.5t159.5 74t202 27t212 -55.5t100 -132.5q0 -44 -34.5 -79t-65.5 -35t-43.5 6t-63 40.5t-101.5 34.5t-84.5 -38t-33.5 -105.5t60 -99.5q16 -8 91 -18q61 -7 61 -86 t-67 -118q-30 -17 -111 -28q-47 -7 -47 -99t60.5 -192t148.5 -151t193 -51t192.5 68.5t87.5 167.5q0 48 -37.5 82.5t-90.5 34.5q-82 0 -142 -102q-26 -44 -58 -44t-58 42.5t-26 99.5q0 122 86.5 218t234.5 150.5t180.5 84.5t32.5 58t-14 43t-33 15l-50 -13q-17 0 -29.5 12.5 t-12.5 43t39 67t99 57.5t121 21q111 0 194 -57q47 -32 74 -85.5t27 -126.5t-58 -154t-145.5 -128t-87.5 -76q0 -21 47 -50t73.5 -77.5t26.5 -104.5q0 -94 -72 -192q-107 -147 -306.5 -220.5t-426.5 -73.5q-299 0 -511 111q-153 79 -237 231q-55 99 -55 215.5z" />
<glyph unicode="'" horiz-adv-x="467" d="M68 1171q0 96 45.5 155t119.5 59t120 -63t46 -152q0 -181 -92 -332q-47 -78 -75.5 -78t-80.5 99q-83 159 -83 312z" />
<glyph unicode="(" horiz-adv-x="1021" d="M137 521q0 298 106 515q170 350 529 351q135 0 198 -39q30 -19 30 -65t-17.5 -73t-47.5 -27l-122 13q-126 0 -184 -184q-69 -218 -69 -456q0 -458 118 -664q56 -94 154 -94l97 6q72 0 72 -94q0 -99 -200 -99q-269 0 -450 228q-214 269 -214 682z" />
<glyph unicode=")" horiz-adv-x="1021" d="M20 1287q0 99 200 99q268 0 450 -228q214 -269 214 -690t-215 -673q-157 -185 -420 -185q-135 0 -198 39q-30 18 -30 64q0 97 65 100q14 1 57 -5.5t65 -6.5q126 0 184 184q69 218 69 457q0 459 -119 663q-55 94 -153 94l-97 -6q-72 0 -72 94z" />
<glyph unicode="*" d="M192 1014.5q0 36.5 30 113.5q20 50 55 50q23 0 65 -15l129 -48q17 -6 25.5 -6t14.5 34l-6 138v11q0 62 18.5 77.5t85.5 15.5t87 -9q31 -15 28 -95l-5 -138q0 -34 17 -34q6 0 22 6l129 48q44 16 65.5 16t33.5 -13t31 -64t21 -87.5t-83 -59.5l-133 -38q-28 -8 -28 -23 q0 -6 13 -23l86 -108q38 -49 38 -75.5t-62 -70.5t-87 -44t-67 61l-76 115q-14 20 -24.5 20t-24.5 -20l-76 -115q-41 -61 -66.5 -61t-87.5 43.5t-62 70t39 76.5l85 108q13 17 13 24q0 14 -28 22l-132 38q-83 23 -83 59.5z" />
<glyph unicode="+" d="M123 501.5q0 16.5 21.5 78t42 98t60.5 36.5l167 -11h27q54 0 53 54v65q-1 62 -7.5 105t-6.5 54q0 36 50 58q116 51 164 51t48 -39q0 -5 -2.5 -22.5t-2.5 -97.5v-174q1 -53 55 -54h155q79 0 97 2.5t23 2.5q39 0 39 -40q0 -22 -17 -77.5t-38 -95.5t-54 -40l-159 14h-46 q-59 4 -55 -55v-16q0 -67 6 -124.5t6 -69.5q0 -44 -61 -73q-33 -15 -89.5 -33t-72.5 -18t-27.5 13.5t-11.5 33.5l7 220v67q3 58 -55 55h-49l-221 -7q-19 0 -32.5 11.5t-13.5 28z" />
<glyph unicode="," horiz-adv-x="614" d="M56 212.5q0 101.5 66 173.5t169 72q49 0 97 -23.5t80 -63.5q76 -95 76 -240q0 -80 -29.5 -179.5t-77.5 -180.5q-79 -132 -165 -132q-38 0 -68.5 23t-30.5 46t31 72q65 104 65 150.5t-34 59.5q-67 25 -95 49q-84 72 -84 173.5z" />
<glyph unicode="-" horiz-adv-x="582" d="M0 404q0 32 23.5 108t48 120.5t46 62.5t56.5 19l238 -16q65 0 96.5 5t42.5 5q31 0 31 -44q0 -102 -68 -240q-24 -47 -40.5 -64t-37 -17t-80 10t-175.5 10l-140 -7q-41 0 -41 48z" />
<glyph unicode="." horiz-adv-x="614" d="M72 210q0 103 70.5 168.5t165.5 66t165.5 -66t70.5 -169t-70.5 -169.5t-165.5 -67t-165.5 67t-70.5 170z" />
<glyph unicode="/" horiz-adv-x="966" d="M-84 -310q0 29 8.5 49.5t78 154.5t111.5 231l361 823q14 35 25 64q18 46 58 142t57.5 145.5t39 68t65.5 18.5q166 0 166 -79q0 -34 -25 -81q-116 -225 -173 -358l-360 -820q-75 -169 -112.5 -269.5t-62 -134t-85 -33.5t-106.5 25t-46 54z" />
<glyph unicode="0" d="M51 571.5q0 282.5 169 441.5q149 141 373 141q137 0 264 -67q172 -90 257 -268q63 -130 63 -277q0 -268 -205 -439q-157 -130 -368.5 -130t-367.5 145q-185 171 -185 453.5zM477 698q0 -207 79 -372q31 -64 83 -64q91 0 91 161q0 90 -19.5 192.5t-51 170t-89.5 70.5 q-93 0 -93 -158z" />
<glyph unicode="1" d="M80 120q0 30 25 52t62 23l104 -11q85 0 98 134q7 76 7 432q0 54 -22 75t-80 21l-75 -5q-34 0 -55 18.5t-21 49.5t32 62.5t89 55.5q283 120 602 120q87 0 126.5 -20.5t39.5 -56t-13 -50t-52 -31.5q-62 -27 -71 -66t-14 -304q8 -268 9 -287t10.5 -62.5t42.5 -63.5 t121.5 -24t88.5 -78.5t-133 -98.5q-185 -33 -347 -33q-323 0 -497 64q-77 28 -77 84z" />
<glyph unicode="2" d="M18 51q0 26 19 48.5t123 120.5q193 182 286 339q48 80 48 134t-29 83.5t-76.5 29.5t-71.5 -12.5t-106 -81.5q-22 -18 -63.5 -18t-81 36.5t-39.5 77.5t36 90.5t95 93.5q216 155 479 155q200 0 331 -77q59 -35 95 -98t36 -132q0 -175 -242 -380q-86 -72 -86 -104t26 -51.5 t63 -19.5q88 0 157 68q35 34 46.5 41t31.5 7q88 0 88 -150q0 -75 -28.5 -152t-79 -135t-112.5 -58q-25 0 -40 10.5t-33.5 39t-36 36.5t-64.5 8h-681q-90 0 -90 51z" />
<glyph unicode="3" d="M-4 -45q0 43 31.5 72.5t66.5 29.5t108 -17t140 -17q120 0 193 57t73 130.5t-58 119t-132.5 45.5t-109.5 -10.5t-48 -10.5q-26 0 -53.5 53t-27.5 90t13 45.5t79.5 31t117.5 74.5t51 106.5t-45 96t-95.5 41.5t-77 -9t-72.5 -33.5t-64.5 -24.5t-41 35t-22.5 74q0 68 120 128 q75 38 180.5 61.5t203.5 23.5q194 0 343 -71q59 -29 93.5 -80.5t34.5 -110.5q0 -108 -113 -198q-32 -26 -32 -41q0 -29 57 -40q270 -50 270 -300q0 -157 -107 -284.5t-310 -186.5q-146 -42 -336 -42t-337 57q-93 36 -93 105z" />
<glyph unicode="4" d="M23 198q0 84 25.5 144.5t158.5 219.5l254 305q191 229 282 292q41 28 99.5 46t109 18t72.5 -25t22 -82v-691q0 -31 8.5 -42.5t31.5 -11.5h42q47 1 49 -57v-203q0 -53 -54 -60q-35 -4 -44 -13t-9 -43v-118q4 -63 -58 -66h-342q-36 0 -47 12.5t-11 53.5v103q0 42 -16 58.5 t-56 16.5h-390q-70 0 -98.5 29.5t-28.5 113.5zM284 392q0 -31 28 -38.5t139 -10.5l79 -1q51 0 69 11.5t22.5 56t4.5 187.5v49q0 90 -50 90q-38 0 -71 -41l-154 -189q-67 -83 -67 -114z" />
<glyph unicode="5" d="M65 450q0 47 46 205t99 290.5t78 160t86 27.5h711q40 0 54 -17t14 -75.5t-24 -124.5q-49 -133 -143 -133h-452q-76 0 -76 -60q0 -25 17.5 -35t76.5 -15q422 -42 563 -253q50 -74 50 -160q0 -140 -120 -265q-95 -99 -248.5 -153t-319.5 -54t-281.5 36t-115.5 117 q0 47 16 81t38 34q12 0 41 -9q93 -29 179.5 -29t138.5 36.5t52 103.5t-80.5 116t-193 67.5t-133 23t-38.5 16.5q-35 22 -35 69z" />
<glyph unicode="6" d="M35 554q0 253 203 518q96 125 154.5 177t103 52t120.5 -24q147 -47 147 -91q0 -15 -11.5 -30.5t-62.5 -72t-82.5 -117.5t-31.5 -84q0 -44 31 -44q11 0 83 26t145 26q126 0 229 -80q145 -112 145 -300q0 -149 -88 -286q-161 -251 -479 -251q-264 0 -426 152 q-90 85 -135 203t-45 226zM511 475.5q0 -68.5 59 -150t120 -81.5q41 0 66 24.5t25 78t-30 126t-67.5 103t-79.5 31t-67.5 -31t-25.5 -100z" />
<glyph unicode="7" d="M38 877q0 120 48 211q23 43 59.5 71.5t64.5 28.5t91.5 -27.5t138.5 -27.5h643q95 0 95 -72q0 -23 -8 -47l-406 -1230q-9 -25 -31 -34t-105.5 -9t-178 34t-94.5 75q0 10 8 25l373 713q41 79 41 113.5t-47 48.5t-186.5 14t-204.5 -19q-28 -9 -52.5 -42.5t-47 -47 t-58.5 -13.5q-69 0 -106 57.5t-37 177.5z" />
<glyph unicode="8" d="M22 367q0 129 119 213q44 32 44 46.5t-38 50.5q-95 91 -95 218q0 176 176 281q153 91 366.5 91t390.5 -69q97 -38 149 -106t52 -143q0 -118 -130 -201q-39 -25 -39 -39.5t56 -53t95 -111t39 -149.5q0 -116 -84 -226q-149 -196 -472 -196q-223 0 -396 79q-117 54 -175 137 t-58 178zM355 410q0 -39 20 -85t50 -76q72 -73 176 -73q61 0 97.5 27t36.5 73.5t-34.5 77.5t-143 81.5t-141.5 50.5q-61 1 -61 -76zM540 1004q0 -52 77 -108.5t128 -56.5q26 0 47 35t21 86.5t-49 86.5t-107 35t-87.5 -22.5t-29.5 -55.5z" />
<glyph unicode="9" d="M25 690q0 214 168 335.5t391 121.5t388 -91q218 -121 218 -392q0 -219 -149.5 -473t-363.5 -412q-50 -36 -98.5 -36t-144.5 51.5t-96 83.5q0 21 66 64.5t117 124t51 123t-40 42.5l-96 -7q-160 0 -257 92q-73 68 -113.5 167t-40.5 206zM493 736q0 -103 50 -177.5 t119 -74.5q41 0 66.5 30t25.5 81t-23 119.5t-55.5 107t-78.5 39t-75 -35.5t-29 -89z" />
<glyph unicode=":" horiz-adv-x="614" d="M72 205.5q0 98.5 66 169t167.5 70.5t170 -68.5t68.5 -169t-70.5 -167.5t-165.5 -67t-165.5 67t-70.5 165.5zM72 783.5q0 98.5 66 169t167.5 70.5t170 -68.5t68.5 -169t-70.5 -167.5t-165.5 -67t-165.5 67t-70.5 165.5z" />
<glyph unicode=";" horiz-adv-x="614" d="M56 212.5q0 101.5 66 173.5t169 72q49 0 97 -23.5t80 -63.5q76 -95 76 -240q0 -80 -29.5 -179.5t-77.5 -180.5q-79 -132 -165 -132q-38 0 -68.5 23t-30.5 46t31 72q65 104 65 150.5t-34 59.5q-67 25 -95 49q-84 72 -84 173.5zM68 783.5q0 98.5 66 169t167.5 70.5 t170 -68.5t68.5 -169t-70.5 -167.5t-166 -67t-165.5 67t-70 165.5z" />
<glyph unicode="&#x3c;" horiz-adv-x="1024" d="M68 509v372l887 510v-445l-415 -253l413 -253l2 -442z" />
<glyph unicode="=" d="M123 323.5q0 16.5 21.5 78t42 98t61.5 36.5l193 -11h506q78 0 96.5 2.5t23.5 2.5q39 0 39 -40q0 -22 -17 -77.5t-38 -95.5t-54 -40l-159 14h-448l-221 -7q-19 0 -32.5 11.5t-13.5 28zM123 678.5q0 16.5 21.5 78t42 98t61.5 36.5l193 -11h506q77 0 96 2.5t24 2.5 q39 0 39 -39q0 -23 -17 -78.5t-38 -95.5t-54 -40l-159 14h-448l-221 -7q-19 0 -32.5 11.5t-13.5 28z" />
<glyph unicode="&#x3e;" horiz-adv-x="1024" d="M68 -2v445l415 253l-412 253l-3 442l888 -511v-372z" />
<glyph unicode="?" horiz-adv-x="987" d="M14 1009.5q0 80.5 66.5 172t173.5 137t226 45.5t236 -49t184 -137t67 -196t-95 -187q-25 -21 -108 -62t-104.5 -61.5t-46.5 -74.5t-51 -73.5t-87.5 -19.5t-96.5 35t-35 93t17 96.5t84.5 140t67.5 187.5q0 43 -19.5 70.5t-50 27.5t-43.5 -19.5t-19 -73.5 q-10 -102 -67 -155.5t-135 -53.5t-121 38.5t-43 119zM243 186.5q0 90.5 62.5 155t154.5 64.5t154 -64.5t62 -152t-64 -152t-152 -64.5t-152.5 61.5t-64.5 152z" />
<glyph unicode="@" horiz-adv-x="1636" d="M55 504q0 229 125 445q155 268 438 379q161 64 360 64q276 0 440 -152q81 -74 125.5 -181t44.5 -213q0 -159 -92.5 -305t-280.5 -212q-96 -34 -174.5 -34t-115 26t-52.5 90q-5 19 -19 19t-38 -24q-104 -103 -202 -103t-153.5 63t-55.5 167q0 184 115 341q64 88 145 137.5 t150.5 49.5t143.5 -44q24 -15 35.5 -15t30.5 10q99 48 163.5 48t64.5 -59q0 -34 -43 -199.5t-43 -247.5q0 -36 41.5 -36t96.5 55q113 113 113 278t-111.5 276.5t-341.5 111.5q-306 0 -511 -201q-123 -122 -186 -304q-41 -116 -41 -231q0 -221 167 -314q116 -64 302 -64 t369 86q47 22 76 22t48 -16.5t19 -40.5q0 -46 -64 -89q-169 -114 -448 -114q-475 0 -602 320q-39 98 -39 211zM745 586q0 -48 27 -48t66.5 60.5t66.5 132.5t27 114.5t-22 42.5q-32 0 -74.5 -59.5t-66.5 -127t-24 -115.5z" />
<glyph unicode="A" horiz-adv-x="1693" d="M0 94q0 31 15.5 48t68 35.5t86 60t95.5 177.5l141 309q78 170 104.5 254.5t27.5 168t10.5 117t42.5 65.5q69 70 173 70t196 -79q128 -108 372 -629l189 -405q27 -56 45 -73.5t55 -23.5q72 -11 72 -78.5t-88 -99.5t-301 -32t-292.5 14t-109 41.5t-29.5 62t15.5 51t60 31.5 t44.5 53q0 67 -84 79t-229.5 12t-166.5 -13t-33 -39t-12 -49t8.5 -29.5t55.5 -21.5q61 -18 61 -72q0 -119 -285 -119q-162 0 -235 21.5t-73 92.5zM590 590q0 -25 46 -25h196q54 0 54 24q0 33 -54.5 127t-72.5 114t-38 20q-36 0 -60 -67q-71 -160 -71 -193z" />
<glyph unicode="B" horiz-adv-x="1469" d="M27 86.5q0 35.5 13 51.5t52.5 43t50.5 69.5t27 221.5t16 397t-15.5 256.5t-77 65t-61.5 75.5t39.5 77t101.5 28l277 -7l420 8q133 0 214.5 -21.5t141.5 -72.5q98 -83 98 -222q0 -69 -29 -134.5t-71 -99t-42 -57.5t42 -41q82 -33 150 -112.5t68 -212.5t-105 -252 q-139 -157 -411 -157q-14 0 -344 11l-134 -1q-141 -2 -202.5 -6.5t-104.5 -4.5t-79 31q-35 31 -35 66.5zM651 415q0 -131 19 -174t77 -43q152 0 152 178q0 222 -170 222q-44 0 -61 -19t-17 -69v-95zM651 880q0 -49 12.5 -69t43.5 -20q74 0 109 45.5t35 141t-36 147 t-102 51.5q-35 0 -48.5 -19.5t-13.5 -70.5v-206z" />
<glyph unicode="C" horiz-adv-x="1474" d="M48 696.5q0 206.5 129 377.5t322 255q147 64 298 64t287 -64q64 -30 89 -30l87 12q52 0 91 -48q96 -116 96 -288q0 -121 -83 -177q-45 -30 -98.5 -30t-85.5 22t-68.5 89.5t-63.5 102t-66 62.5q-97 68 -201.5 68t-165 -74.5t-60.5 -223t87 -291.5q118 -191 338 -191 q81 0 160.5 27t120.5 66.5t70.5 39.5t54.5 -32.5t25 -84.5t-35 -124t-84 -113q-21 -17 -73 -27t-115 -40q-148 -71 -311.5 -71t-343 81t-290.5 258.5t-111 384z" />
<glyph unicode="D" horiz-adv-x="1643" d="M27 94.5q0 42.5 18.5 62t59.5 30.5t55 33.5t22 92.5q21 184 21 718q0 84 -13 112t-61 45q-69 26 -69 82q0 111 180 111l188 -4l418 11q229 0 362 -52q198 -78 298 -262q89 -162 89 -386q0 -113 -33 -226.5t-89 -196.5q-116 -168 -320 -236q-120 -40 -256 -40l-121 4 l-104 3q-121 4 -213 4h-72l-209 -10q-67 0 -109 31t-42 73.5zM669 310q0 -63 27 -89.5t90 -26.5q292 0 292 444q0 245 -71.5 387t-250.5 142q-48 0 -67.5 -19t-19.5 -64v-774z" />
<glyph unicode="E" horiz-adv-x="1415" d="M27 1266q0 32 19 57t54 33t147 9h514q156 0 227.5 6.5t116 19.5t56.5 13q52 0 92 -56q66 -91 66 -220q0 -65 -27.5 -102.5t-68 -37.5t-59 13.5t-56 70.5t-105 79.5t-202 22.5t-159.5 -41q-13 -22 -15.5 -59t-2.5 -189q0 -60 20 -74.5t83.5 -14.5t82.5 17.5t25 69t13.5 73 t28 38.5t55 17t59.5 -34t39.5 -107.5t14.5 -153.5q0 -158 -49 -259q-27 -55 -71.5 -55t-57.5 17.5t-20 72.5q-15 113 -132 113q-45 0 -61.5 -28.5t-16.5 -90.5q0 -166 20 -235q8 -30 49.5 -41.5t165 -11.5t199.5 38.5t124 139.5q28 58 50.5 78t61.5 20t66.5 -36.5t27.5 -94 t-31 -147.5t-65 -142t-49 -63.5t-36 -11.5t-71 9t-157 12h-848q-51 0 -79 22.5t-28 57.5t12 48t48.5 29.5t51 35.5t22.5 56q33 151 33 472q0 403 -70 450q-12 8 -50 19q-57 17 -57 76z" />
<glyph unicode="F" horiz-adv-x="1354" d="M27 108q0 44 32 71q8 6 59.5 26.5t62.5 100.5q18 123 18 436.5t-13 369.5t-63 78t-65.5 38.5t-15.5 54t43 67t94.5 29.5t171.5 -9.5t415 -9.5t421 20q17 2 26 2q35 0 67 -40q88 -112 88 -248q0 -62 -29 -99t-70 -37t-59 14t-77.5 82t-123 84t-236.5 21q-69 0 -83 -30.5 t-24.5 -106.5t-10.5 -125.5t24 -63.5t79 -14t76 16t29 54q23 109 94 109q122 0 122 -292q0 -185 -53 -272q-32 -53 -89.5 -53t-66.5 79q-5 51 -12.5 72t-34.5 46t-81 25t-70 -16q-16 -17 -15 -43q1 -18 1 -80l-1 -79q0 -126 36 -163q12 -15 24.5 -19.5t52.5 -10.5 q75 -11 75 -85t-90 -96q-130 -31 -350.5 -31t-276.5 18q-101 31 -101 110z" />
<glyph unicode="G" horiz-adv-x="1626" d="M48 696q0 180 101 349t276 258.5t384 89.5q131 0 215 -27t103.5 -27t62 15t64.5 15q56 0 107 -66q82 -106 82 -232q0 -86 -43.5 -139t-108 -53t-120.5 42q-17 13 -83 94q-110 135 -246.5 135t-213 -95t-76.5 -256q0 -239 122 -407q46 -61 110 -97.5t121.5 -36.5t91 34.5 t33.5 85.5t-28 71q-11 8 -20.5 9.5t-55 1.5t-74 27.5t-28.5 69.5q0 83 115.5 119.5t278.5 36.5q388 0 388 -158q0 -36 -25 -62.5t-62.5 -31.5t-48 -15.5t-21.5 -51.5q-43 -159 -168 -266q-86 -73 -207.5 -114t-255.5 -41q-219 0 -404.5 102t-283.5 287q-82 154 -82 334z" />
<glyph unicode="H" horiz-adv-x="1642" d="M27 117q0 33 16 51t57 39t52 43q33 62 33 380l-5 357v10q0 77 -14 103q-16 28 -71 55t-55 69q0 101 196 140q114 23 234 23q312 0 312 -129q0 -35 -16 -57t-58 -47.5t-52.5 -64.5t-10.5 -133.5t26 -110.5q15 -10 45.5 -12t138.5 -2t133 11t25 55q0 132 -12 184t-51.5 74 t-53.5 39.5t-14 52.5t31 69q65 70 342 70q184 0 271.5 -33.5t87.5 -99t-62 -95.5q-39 -18 -51 -34.5t-17.5 -51.5t-11.5 -232t-6 -356.5t11.5 -202t21.5 -52.5t55.5 -35.5t45.5 -68.5q0 -76 -90.5 -110.5t-281 -34.5t-271.5 33.5t-81 95.5t59 94q29 16 39.5 32t24.5 79.5 t14 156t-18.5 107.5t-147 15t-177.5 -20q-20 -8 -25.5 -51.5t-5.5 -135.5t32 -142q11 -16 52.5 -40.5t41.5 -87t-97 -99.5t-269 -37q-276 0 -347 76q-25 28 -25 61z" />
<glyph unicode="I" horiz-adv-x="847" d="M27 1254.5q0 35.5 41.5 61t156.5 48t243 22.5q351 0 351 -135q0 -29 -13.5 -43.5t-64 -40t-65 -103.5t-14.5 -382t13 -364t27.5 -75.5t50.5 -33.5q66 -30 66 -87q0 -142 -445 -142q-326 0 -326 124q0 45 56.5 79.5t65.5 86.5q19 114 19 427t-26 385q-14 41 -61 71t-61 48 t-14 53.5z" />
<glyph unicode="J" horiz-adv-x="1284" d="M-14 357.5q0 90.5 63 156t157 65.5t159 -55.5t65 -137.5l-14 -92q0 -32 23 -52t61 -20q67 0 108 60t41 158l-1 91l-2 245q-9 223 -13.5 262.5t-21 62t-28 28.5t-49.5 15q-71 17 -71 76t42.5 91.5t144 53.5t214.5 21t218.5 -18t146.5 -46t41 -68t-15 -57.5t-69 -45 t-62.5 -68t-13.5 -310t-8 -322.5q-10 -220 -129 -332q-72 -68 -185 -107t-231 -39q-248 0 -423 109q-68 42 -108 113.5t-40 162z" />
<glyph unicode="K" horiz-adv-x="1694" d="M27 1240.5q0 52.5 35 81.5q77 64 368 64q157 0 229 -29t72 -101q0 -30 -10.5 -46.5t-54.5 -51.5q-16 -14 -29.5 -67t-13.5 -104q0 -84 38 -84q23 0 44.5 20t91.5 106.5t70 112.5t-16 56.5t-16 51.5q0 74 80 104.5t253.5 30.5t247.5 -20q91 -25 91 -106q0 -32 -19 -59.5 t-43.5 -35t-89 -8.5t-91 -12.5t-68.5 -51.5l-107 -103q-59 -56 -59 -91.5t13.5 -60.5t50.5 -68l374 -433q50 -58 69 -73.5t65 -35.5q91 -40 91 -121q0 -106 -151 -106h-379q-39 0 -61.5 17t-86 104t-155.5 186.5t-114.5 118t-41.5 18.5q-58 0 -58 -99t38 -133q7 -5 32 -22 q54 -35 54 -87q0 -66 -88 -94.5t-284.5 -28.5t-281.5 22q-36 10 -58.5 36.5t-22.5 69.5t60 81q27 18 39 39q41 78 41 389.5t-14.5 394t-28.5 103.5t-49 41q-56 32 -56 84.5z" />
<glyph unicode="L" horiz-adv-x="1296" d="M27 1241q0 73 112 108.5t295.5 35.5t279.5 -20q124 -27 124 -108q0 -33 -16.5 -49t-80.5 -43q-38 -17 -48 -58t-10 -179v-459q0 -155 30 -204t140 -49q217 0 268 206q15 65 68 65t86.5 -47.5t33.5 -123.5q0 -124 -92 -265q-29 -45 -51 -61.5t-53 -16.5l-222 27h-699 q-138 0 -138 85q0 28 13.5 41.5t68 39.5t69 71t14.5 243l-11 515q0 80 -12.5 109.5t-65.5 47.5t-78 37.5t-25 51.5z" />
<glyph unicode="M" horiz-adv-x="1810" d="M27 89q0 28 12.5 40.5t55 32.5t54 46t20 103.5t16.5 260t8 328.5q0 195 -45 235q-12 10 -44 26q-71 34 -71 88q0 35 26.5 64t70.5 41q111 32 240.5 32t169 -15.5t54.5 -32.5t43 -70l208 -383q34 -63 47 -77t34.5 -14t37 15t36.5 56l141 275q26 53 34 69q49 100 103.5 138 t215.5 38q283 0 283 -129q0 -29 -11 -46.5t-51 -47.5t-52 -96q-23 -138 -23 -364.5t15 -346t27.5 -136.5t56.5 -46t44 -69q0 -102 -194 -120q-53 -5 -193 -5q-314 0 -314 116q0 24 12 39.5t62 56.5q26 21 35.5 81t9.5 172t-7.5 137t-33.5 25t-52 -38.5t-78 -153.5l-120 -269 q-31 -68 -50 -91.5t-41.5 -23.5t-36.5 15.5t-53.5 91.5t-65.5 135l-132 297q-27 62 -58 62t-34 -53q-7 -118 -7 -220t8.5 -131.5t20 -39.5t62.5 -36q33 -17 33 -59q0 -112 -287 -112q-242 0 -242 109z" />
<glyph unicode="N" horiz-adv-x="1700" d="M26 1257q0 96 165 121q56 8 166 8t146.5 -12.5t86.5 -56.5l498 -436q70 -61 101 -61q52 0 52 118.5t-15 164.5t-58.5 67t-59.5 42.5t-16 55.5q0 84 115 108q47 10 181 10t192 -18q92 -28 92 -99.5t-75 -104.5q-30 -13 -41 -23q-46 -42 -47 -280v-326q0 -75 1 -228v-13 q0 -143 -21 -218q-27 -97 -98 -97q-31 0 -53.5 13t-74.5 60l-593 531q-62 56 -103 56q-61 0 -61 -154t15.5 -205t63.5 -75q67 -33 67 -86q0 -139 -299 -139q-135 0 -209.5 35.5t-74.5 100.5q0 34 14 51t62 45.5t58 99.5q17 129 17 379q0 360 -58 432q-17 21 -59 41.5 t-59.5 41.5t-17.5 51z" />
<glyph unicode="O" horiz-adv-x="1594" d="M48 699.5q0 221.5 127.5 393.5t330.5 248q136 52 302 52q257 0 449 -147q130 -101 210 -261.5t80 -320.5q0 -236 -156 -422q-132 -158 -345 -227q-131 -42 -283.5 -42t-327 79.5t-281 252.5t-106.5 394.5zM542 880q0 -95 46 -243.5t116 -263.5q31 -49 76.5 -78t107 -29 t108 57t46.5 164t-39 247t-89 220q-92 148 -201 152q-84 0 -133 -75q-38 -56 -38 -151z" />
<glyph unicode="P" horiz-adv-x="1401" d="M27 1261q0 93 148 93q24 0 119 -3h60q166 1 194.5 2.5t145 12.5t164.5 11q164 0 292 -67q223 -116 223 -368q0 -204 -151.5 -323t-360.5 -119l-181 10q-29 0 -29 -33v-6l7 -164q2 -48 17.5 -71.5t72 -53.5t56.5 -71q0 -63 -96 -97t-272 -34q-370 0 -370 127q0 30 16 46 t75 46q36 19 42 53t8 219v526q0 102 -14 129.5t-76 44.5q-90 26 -90 90zM658 784q0 -39 23 -50t78 -11t100 37q65 53 65 180.5t-76 185.5q-48 37 -119 37t-71 -39v-340z" />
<glyph unicode="Q" horiz-adv-x="1600" d="M48 693q0 210 109.5 373.5t296 245t342.5 81.5t314 -64q207 -84 320.5 -276.5t113.5 -403.5t-131 -391q-60 -84 -149 -147.5t-182 -89.5q-24 -7 -24 -20q0 -36 88.5 -63t180.5 -27t155 28q13 6 26 6t29 -25t16 -50q0 -51 -64.5 -108.5t-168 -91.5t-223 -34t-270 49 t-439.5 185q-51 25 -115 41.5t-106 16.5l-53 -4q-19 0 -31.5 16.5t-12.5 52t39 75t109 39.5l54 -1q22 0 22 17.5t-67 95t-123 196.5t-56 278zM540 893.5q0 -102.5 35.5 -233.5t96.5 -247q82 -156 204 -156q79 0 130.5 55t51.5 153.5t-40 241.5t-102 251q-80 141 -208 145 q-79 0 -123.5 -53.5t-44.5 -156z" />
<glyph unicode="R" horiz-adv-x="1590" d="M27 1263.5q0 32.5 29 60.5q53 51 197 51l244 -12q90 0 212.5 9.5t160.5 9.5q214 0 347 -98t133 -263q0 -92 -44 -167.5t-121 -113.5q-32 -16 -32 -38q0 -29 49 -47q105 -38 154 -115t70 -236q9 -66 26 -85.5t79 -37.5q19 -6 32 -25.5t13 -47t-24 -58.5q-67 -89 -277 -89 t-294 103q-38 46 -64.5 116t-56 191.5t-64.5 160.5q-36 38 -88 40q-3 0 -6 1q-46 0 -56 -22q-10 -23 -10.5 -128.5t10 -151t20.5 -56.5t38 -27q60 -33 60 -93t-83.5 -87.5t-282.5 -27.5q-370 0 -370 140q0 24 11 38.5t52.5 42t57 67t21 123.5t5.5 522q0 139 -14 189t-59 72 t-60 39.5t-15 50zM625 842q0 -36 10.5 -48t42.5 -12q88 0 128 45.5t40 145.5q0 193 -137 193q-39 0 -55 -18t-18 -64l-11 -233v-9z" />
<glyph unicode="S" horiz-adv-x="1321" d="M41 398q0 132 83 132q38 0 66 -30.5t106 -149.5q37 -56 117.5 -93t160.5 -37t126 27.5t46 69t-36 70.5t-148 64t-187 72.5t-140 94.5q-158 140 -158 318q0 88 41 171.5t116 144.5q168 141 410 141q103 0 270 -51q20 -6 31 -6t44 12t51 12q67 0 141.5 -106t74.5 -202 q0 -56 -33.5 -94.5t-77.5 -38.5t-69 16t-110 95q-120 112 -236 112q-56 0 -89.5 -27t-33.5 -71q0 -87 153 -131q207 -61 265 -89q255 -124 255 -365q0 -213 -176 -349.5t-463 -136.5q-128 0 -270 30.5t-197.5 67t-94 144t-38.5 183.5z" />
<glyph unicode="T" horiz-adv-x="1435" d="M0 1013.5q0 62.5 28 137t75 137.5q76 102 150 102q20 0 60 -8q78 -17 154 -17h527q85 3 135 17t73 14q81 0 157.5 -120t76.5 -227t-46.5 -142t-101 -35t-93.5 29.5t-74.5 94.5t-54.5 84t-51 19q-64 0 -64 -133v-560q0 -86 18 -125t70 -61t71.5 -42.5t19.5 -56.5 q0 -142 -397 -142q-248 0 -358.5 37.5t-110.5 113.5q0 41 36 64q9 5 59 20t64.5 46t22.5 114q23 220 23 560q0 90 -14 128t-49.5 38t-72.5 -56q-67 -102 -114 -138t-98 -36t-86 40.5t-35 103z" />
<glyph unicode="U" horiz-adv-x="1679" d="M26 1246q0 46 34 76q70 63 348 63q165 0 273 -24.5t108 -109.5q0 -42 -31 -67q-7 -6 -49.5 -25.5t-54 -56.5t-11.5 -123t-8 -375v-17q0 -160 93 -245q80 -74 206 -74q80 0 145 29.5t95.5 74.5t40.5 93t10 131v220q-5 253 -14.5 296.5t-63 67.5t-72.5 43t-19 47 q0 60 71.5 87.5t228 27.5t226 -27t69.5 -86q0 -29 -12 -43t-64 -43.5t-59.5 -64t-9.5 -256.5v-244q0 -221 -33 -313q-71 -194 -312 -281q-146 -54 -330 -54q-321 0 -514 153q-94 75 -130 174t-36 286l8 396q0 83 -12.5 115t-54.5 60q-66 43 -66 89z" />
<glyph unicode="V" horiz-adv-x="1644" d="M0 1233q0 70 105 111.5t301 41.5q396 0 396 -127q0 -42 -46 -73.5t-46 -54.5t18 -64l125 -282q27 -62 60.5 -62t59.5 33t87.5 168.5t74.5 167t13 48.5q0 34 -49.5 59.5t-49.5 67.5q0 119 319 119q159 0 224.5 -26t65.5 -87q0 -74 -86 -85q-61 -7 -86 -25t-69 -108 l-459 -929q-42 -86 -80 -118.5t-91 -32.5t-86.5 18.5t-50 40t-41.5 77.5l-409 901q-34 76 -61.5 103.5t-83 37.5t-55.5 80z" />
<glyph unicode="W" horiz-adv-x="2129" d="M0 1244q0 141 350 141q179 0 257.5 -25t78.5 -99q0 -23 -4 -33.5t-22.5 -38t-18.5 -66.5t67 -197l41 -96q26 -60 34.5 -72.5t24.5 -12.5q39 0 80 111l41 114q5 12 5 19.5t-5 20.5l-29 70q-27 61 -67 81q-72 38 -72 96q0 128 384 128q290 0 347 -66q20 -24 20 -51 t-9.5 -40t-43.5 -42.5t-34 -58.5t38 -110l57 -122q39 -83 55.5 -105.5t38.5 -22.5t38.5 26t42.5 102l48 140q20 60 20 95t-42 48q-84 27 -84 91.5t65 90.5t214 26q226 0 226 -118q0 -29 -13.5 -50t-47.5 -50t-48.5 -55t-44.5 -107l-175 -465q-131 -325 -158 -387 t-52.5 -104.5t-52.5 -57t-80 -14.5q-103 0 -150 112l-198 470q-16 39 -24 49t-25.5 10t-32.5 -25t-57 -129l-136 -338q-38 -92 -72.5 -121.5t-101 -29.5t-103 30t-66.5 106l-368 941q-23 58 -31.5 68.5t-56.5 35.5t-48 87z" />
<glyph unicode="X" horiz-adv-x="1628" d="M0 115.5q0 38.5 29.5 63.5t90 27t106.5 39.5t160 181.5l155 194q13 16 13 23.5t-13 23.5l-256 327q-60 78 -79 95t-70 33t-77 39.5t-26 66.5q0 90 146 123t340 33t265 -26q31 -11 50 -38t19 -68t-30 -62t-34.5 -26t-4.5 -22t37 -65t54 -48t59 51t42 67t-5.5 22t-37 29.5 t-31.5 67.5q0 63 78 91t230.5 28t222.5 -21q88 -26 88 -104q0 -52 -45 -78q-18 -10 -81 -14.5t-115.5 -44.5t-122.5 -129l-118 -148q-13 -17 -13 -24t13 -23l382 -479q34 -42 53 -57t64 -30q90 -28 90 -98q0 -36 -25 -67.5t-75 -50.5q-98 -38 -329 -38t-299 16 q-125 28 -125 103q0 43 40 69.5t40 44.5q0 50 -116 203q-15 19 -25.5 19t-41 -37t-67 -95t-36.5 -74.5t40.5 -47.5t40.5 -77q0 -69 -78 -93q-102 -32 -252.5 -32t-236.5 27q-35 11 -59 41t-24 68.5z" />
<glyph unicode="Y" horiz-adv-x="1597" d="M0 1260q0 67 101 96.5t317.5 29.5t291.5 -15q132 -26 132 -102q0 -26 -27 -60t-27 -61t47 -92t74 -65t47 15.5t55.5 60t35.5 68t-4.5 32.5t-28.5 37.5t-24 67.5q0 113 306 113q173 0 215.5 -13t64 -41t21.5 -64.5t-25 -57.5t-84.5 -32t-101.5 -43.5t-166 -166 t-157.5 -203t-33.5 -196.5t7 -207t21 -103.5t58 -46.5q73 -38 73 -95q0 -136 -402 -136q-165 0 -300.5 29.5t-135.5 109.5q0 62 76 89q57 20 71 51q32 69 32 326q0 80 -16 124.5t-99.5 153.5t-203.5 227q-52 51 -110 72.5t-79 39.5t-21 58z" />
<glyph unicode="Z" horiz-adv-x="1405" d="M14 1034q0 102 72.5 223.5t109.5 121.5q9 0 26 -6q60 -21 208.5 -21t453 18t329.5 18t51.5 -25t26.5 -59t-36 -97l-442 -762q-75 -130 -75 -156q0 -46 136 -46q53 0 107 11.5t79 27.5q51 34 101 144q20 43 39 59t51 16q140 0 140 -158.5t-84 -277.5q-59 -83 -112 -83 q-15 0 -64 9t-114 9h-869q-59 0 -70.5 2t-27.5 18.5t-16 50t28 81.5l515 873q23 39 23 54q0 57 -106 57t-149.5 -32t-98.5 -145q-42 -87 -96 -87t-95 49t-41 113z" />
<glyph unicode="[" horiz-adv-x="1021" d="M252 -73v1136q0 244 66 291q45 32 243.5 32t286.5 -13q116 -17 116 -95q0 -72 -105 -72l-128 6q-72 0 -88.5 -25.5t-16.5 -136.5v-1123q0 -93 22 -118t105 -25l122 8q42 0 67.5 -19t25.5 -47.5t-17.5 -53t-43.5 -34.5q-68 -27 -303.5 -27t-280.5 29q-71 45 -71 287z" />
<glyph unicode="\" horiz-adv-x="966" d="M80 1306q0 79 166 79q45 0 66 -18.5t38.5 -68t53 -133t88.5 -217.5l360 -823q44 -101 108 -224t77 -152t13 -53q0 -42 -52 -63.5t-109 -21.5t-91 55q-14 23 -50 119.5t-109 262.5l-361 820q-55 131 -173 357q-25 47 -25 81z" />
<glyph unicode="]" horiz-adv-x="1021" d="M54 1271q0 29 17.5 53.5t43.5 34.5q68 27 303.5 27t280.5 -29q71 -45 71 -288v-1135q0 -244 -66 -291q-45 -32 -243 -32t-287 13q-116 17 -116 95q0 72 105 72l128 -6q72 0 88.5 25.5t16.5 135.5v1123q0 94 -22 119t-105 25l-122 -9q-42 0 -67.5 19t-25.5 48z" />
<glyph unicode="^" horiz-adv-x="1024" d="M-1 671l266 706h494l266 -706h-387l-125 405l-126 -405h-388z" />
<glyph unicode="_" horiz-adv-x="1024" d="M0 -109h1024v-257h-1024v257z" />
<glyph unicode="`" horiz-adv-x="1024" d="M156 1321q0 47 68 78t155 31t132.5 -16.5t45.5 -42.5l-15 -45q0 -14 10 -24.5t57.5 -46t58 -49t10.5 -40.5q0 -74 -103 -74q-183 0 -334 117q-85 65 -85 112z" />
<glyph unicode="a" horiz-adv-x="1161" d="M27 250q0 104 84 184q131 126 392 127q58 0 73 11.5t15 85.5q0 169 -94 169q-30 0 -53.5 -18t-58.5 -66q-89 -127 -186 -127q-49 0 -80 29t-31 76.5t38.5 95.5t104.5 84q181 96 366.5 96t306.5 -88q64 -47 89.5 -107.5t25.5 -166.5l-2 -149q0 -155 16.5 -189t26.5 -40 t42 -11t32 -47.5t-38.5 -94.5t-106.5 -91.5t-161.5 -39.5t-154.5 72q-21 26 -40 26t-52 -25q-100 -73 -229 -73t-196 47q-129 89 -129 230zM433 297q0 -49 23 -78.5t61 -29.5q80 0 80 135q0 55 -11 74q-12 20 -50 20h-1q-37 0 -69 -36t-33 -85z" />
<glyph unicode="b" horiz-adv-x="1295" d="M-7 1149q0 67 143 131q78 34 194.5 59.5t199.5 25.5q53 0 52 -60l-13 -390v-22q0 -20 13 -20q7 0 40 27q117 96 257.5 96t247.5 -101q134 -127 134 -331q0 -291 -217 -465q-156 -126 -366 -126q-104 0 -187.5 26.5t-182.5 90.5q-15 9 -25 9t-48.5 -14.5t-73.5 -14.5 q-62 0 -62 40q0 13 13 54q26 87 26 441v276q0 103 -8 129t-52.5 44.5t-64.5 40t-20 54.5zM571 544q0 -235 15 -314t86 -79q149 0 149 242q0 174 -64 254q-37 46 -90 47h-3q-52 0 -72 -32q-22 -32 -21 -118z" />
<glyph unicode="c" horiz-adv-x="1078" d="M34 475.5q0 230.5 169 375.5t405 145q178 0 310.5 -87t132.5 -213q0 -87 -58 -139.5t-139 -52.5t-123 60q-13 19 -39 100t-102 81q-55 0 -92.5 -48t-37.5 -118q0 -120 78 -204t184 -84q50 0 84 8.5t68.5 25t60 16.5t51.5 -32t26 -76t-37 -93.5t-97 -86.5 q-130 -80 -321.5 -80t-336.5 120q-186 152 -186 382.5z" />
<glyph unicode="d" horiz-adv-x="1332" d="M33 494.5q0 130.5 75 256.5t189 185.5t222.5 59.5t200.5 -52q15 -8 24 -8q32 0 32 86q0 37 -17.5 56.5t-62.5 33.5q-63 20 -63 70q0 73 145 114q256 71 342.5 71t86.5 -82v-913q0 -78 6.5 -100t39.5 -45t45.5 -42t12.5 -46q0 -80 -153 -119.5t-298 -39.5q-32 0 -41.5 9.5 t-13.5 53t-35 43.5q-17 0 -53 -30q-102 -83 -242 -83t-264 115q-73 69 -125.5 172.5t-52.5 234zM510 478q0 -143 42 -202.5t104.5 -59.5t92 75.5t29.5 236.5t-31 206.5t-89 46.5h-2q-57 0 -95 -68q-51 -92 -51 -235z" />
<glyph unicode="e" horiz-adv-x="1086" d="M34 478q0 168 95 293t214 175t238 50q190 0 323 -108q67 -54 111 -133t44 -151.5t-27 -114t-70 -41.5h-470q-31 0 -31 -27q0 -65 70.5 -122.5t134.5 -57.5q130 0 220 64q34 24 57 24t48 -32t25 -66q0 -72 -90 -139q-159 -119 -368 -119t-351 122q-69 60 -121 159t-52 224 zM453 695q0 -36 14.5 -48t50.5 -12h101q64 0 64 56.5t-31 90.5t-84 34t-84 -42.5t-31 -78.5z" />
<glyph unicode="f" horiz-adv-x="869" d="M15 624l8 126q2 31 10.5 38.5t46.5 9.5t38 36q0 14 -36.5 80.5t-36.5 149.5q0 122 84 199q123 113 332.5 113t322.5 -89q87 -69 87 -146.5t-43 -122t-111 -44.5t-134 50q-16 13 -67.5 69t-87 56t-55.5 -20t-20 -49q0 -79 150 -169q46 -28 62.5 -44t29.5 -45q7 -12 32 -12 h124q31 0 44.5 -9.5t11.5 -31.5l-8 -119q-2 -36 -11 -45.5t-40 -9.5l-63 3q-42 0 -57 -27.5t-15 -118.5t16 -142.5t33 -66t56 -25.5q88 -26 88 -99t-102.5 -106t-336.5 -33q-347 0 -347 138q0 34 14.5 50t65.5 38.5t62 87.5q17 98 17 179t-17 101q-18 19 -66 19q-1 0 -2 -1 h-8q-43 0 -57 6q-15 5 -14 26z" />
<glyph unicode="g" horiz-adv-x="1184" d="M27 -143.5q0 47.5 21.5 80.5t53 46t31.5 25.5t-25 33.5q-80 67 -80 139q0 48 38.5 99t79 71t40.5 33t-30 41q-103 95 -103 222q0 67 36.5 128t101.5 104q161 105 357 105q78 0 171.5 -19t127.5 -19q109 0 217 86q24 18 43 18t38 -28.5t19 -68t-25.5 -91.5t-55 -77.5 t-29.5 -37.5l5 -62q0 -119 -76 -195q-155 -157 -439 -157l-105 7q-53 0 -53 -53q0 -34 34.5 -53.5t84 -19.5t170.5 17t219 17t156 -34q120 -71 120 -205q0 -101 -81 -204.5t-233.5 -151.5t-351.5 -48t-337 68q-64 32 -102 84t-38 99.5zM315 -96q0 -59 64 -95.5t164 -36.5 t155.5 26t55.5 73q0 25 -21 42.5t-44.5 17.5t-66.5 -6.5t-103 -6.5q-107 0 -140.5 7.5t-38.5 7.5q-25 0 -25 -29zM447 681.5q0 -85.5 33 -150.5t86.5 -65t84.5 40.5t31 128t-32.5 147t-87.5 60.5h-2q-53 0 -82 -37q-31 -38 -31 -123.5z" />
<glyph unicode="h" horiz-adv-x="1390" d="M20 97q0 27 11 41.5t51.5 43t55 147t14.5 363t-8 301.5t-18.5 71.5t-39.5 29.5q-62 32 -62 78t47 77t203.5 74t263.5 43q58 0 56 -50l-13 -419v-6q0 -69 46 -69q24 0 47 33q97 141 257.5 141t254.5 -97q42 -43 59.5 -102t19.5 -169l9 -361q1 -47 12.5 -69t47 -50 t35.5 -60q0 -108 -308 -108t-308 101q0 17 5 26t41 56t36 223.5t-25 237.5q-33 83 -118 83q-61 0 -86 -38t-25 -126v-193q7 -128 12 -145t35 -50.5t30 -61.5q0 -113 -294 -113q-344 0 -344 117z" />
<glyph unicode="i" horiz-adv-x="730" d="M20 797q0 58 81 89q112 43 240 73t190.5 30t62.5 -62v-581q0 -69 12.5 -101t47 -56.5t45 -40t10.5 -39.5q0 -129 -327 -129q-176 0 -279 28q-35 10 -56.5 35t-21.5 54.5t11 44.5t49 43t51 80t13 120q0 181 -11 264q-6 41 -62 65.5t-56 82.5zM39 1180q0 86 124 135.5 t222 49.5t149 -32.5t51 -98.5t-77 -111q-122 -71 -295 -71q-73 0 -123.5 32t-50.5 96z" />
<glyph unicode="j" horiz-adv-x="756" d="M-7 -260q0 26 18.5 45t44.5 19l57 -6q18 0 32.5 17t14.5 38l-10 97v635q0 45 -15.5 70t-53.5 40q-57 23 -57 73q0 131 376 202q106 20 149 20t57 -18t14 -62v-886q0 -135 -21 -208t-72.5 -116t-135 -69.5t-175.5 -26.5t-157.5 39t-65.5 97zM51 1180q0 86 124 135.5 t222 49.5t149 -32.5t51 -98.5t-77 -111q-122 -71 -295 -71q-72 0 -123 32.5t-51 95.5z" />
<glyph unicode="k" horiz-adv-x="1503" d="M20 1139q0 38 36 68.5t118 60.5q262 97 388 97q57 0 55 -49l-9 -313q-1 -47 -1 -143t3 -114q7 -41 39.5 -41t94.5 38.5t62 57.5q0 11 -19 36t-19 44q0 108 266 108q292 0 292 -124q0 -45 -43 -63q-9 -4 -55.5 -12.5t-116.5 -55t-70 -67.5q0 -14 84.5 -131.5t144.5 -189.5 t86.5 -95t73.5 -49q72 -39 72 -90.5t-45.5 -81.5t-124.5 -30h-324q-61 1 -95 45l-166 213q-66 84 -80.5 100t-25.5 16q-19 0 -19 -65.5t10 -86t41 -45.5t31 -66q0 -70 -74 -101t-259 -31t-232 13.5t-71 44t-24 66.5t39 61.5t49 37.5t16 38q22 134 22 408v24v219 q0 112 -11.5 143t-56.5 37q-82 11 -82 68z" />
<glyph unicode="l" horiz-adv-x="748" d="M19 1163q0 119 376 184q110 19 160 19q79 0 79 -98q0 -32 -11.5 -179t-13.5 -296v-321q0 -213 6.5 -248t46.5 -52.5t52.5 -31.5t12.5 -43.5t-23.5 -56.5t-79 -43.5t-237.5 -16.5t-260 29q-36 13 -59 40.5t-23 54.5t12.5 40t53 30.5t49.5 93.5q16 130 16 372t-14 312 t-63 99t-64.5 50.5t-15.5 61.5z" />
<glyph unicode="m" horiz-adv-x="1975" d="M20 82q0 20 9.5 34t49 49.5t46.5 107.5q11 124 11 238t-9.5 151.5t-40 60.5t-39 35t-8.5 33q0 67 105 106q253 91 379 92q57 0 57 -81v-17q-1 -16 -1 -26q0 -54 32 -54q17 0 62 52.5t127 89t168 36.5q167 0 232 -122q25 -45 38.5 -45t54.5 40q130 127 295 127 q129 0 213 -72.5t84 -220.5l-4 -265l-2 -148q0 -64 32 -102.5t37.5 -48t5.5 -25.5q0 -128 -301 -128q-133 0 -214.5 32t-81.5 84q0 20 5.5 30.5t37.5 53.5t32 226.5t-20.5 241.5t-86.5 58q-33 0 -59 -21q-26 -20 -34 -54q-8 -30 -7 -162v-33q1 -162 8.5 -198t50.5 -100 q10 -15 10 -38q0 -119 -311 -119q-187 0 -245.5 25t-58.5 81q0 25 6.5 35t36.5 38.5t36 46.5q17 47 17 290q0 196 -100 196q-75 0 -88 -81.5t-13 -210t4.5 -162.5t26.5 -74t22 -67q0 -65 -95 -91t-232 -26q-280 0 -280 102z" />
<glyph unicode="n" horiz-adv-x="1374" d="M20 778.5q0 39.5 35 65t137 62.5q235 83 314 83q30 0 50.5 -22t20.5 -52l-2 -39q0 -48 40 -48q24 0 51 38q86 124 250 124q126 0 202.5 -56.5t101.5 -120t31 -186.5l14 -352q2 -40 12.5 -59t61.5 -73q15 -16 15 -45q0 -66 -79 -92t-249.5 -26t-228.5 24.5t-58 80.5 q0 20 6 29.5t43 49t37 227.5t-29 247.5t-97.5 59.5t-93.5 -43t-25 -156v-198q0 -59 7.5 -81t49.5 -85q11 -18 11 -41q0 -115 -338 -115q-278 0 -278 115q0 24 8.5 36.5t37.5 33.5t36 46q20 70 20 359q0 69 -10.5 90.5t-57 50.5t-46.5 68.5z" />
<glyph unicode="o" horiz-adv-x="1233" d="M34 465q0 224 180 378t443 154q183 0 321 -95q99 -68 160 -179.5t61 -235.5q0 -217 -194.5 -365.5t-436.5 -148.5t-388 134t-146 358zM480 644q0 -57 22.5 -160.5t53.5 -184.5t101 -81q89 0 89 113q0 84 -22.5 191t-55 174.5t-84.5 68.5h-3q-49 1 -75 -31t-26 -90z" />
<glyph unicode="p" horiz-adv-x="1363" d="M20 748q0 40 28 70.5t91 59.5q245 111 389 113q61 0 76 -10.5t15 -50t24 -39.5q10 0 60 33.5t116.5 53t120.5 19.5q127 0 215 -77q174 -154 174 -405.5t-170 -414.5q-131 -127 -298 -127q-85 0 -175 40q-18 8 -29 8q-30 0 -30 -69.5t51 -103.5t60.5 -45.5t9.5 -38.5 q0 -60 -67 -92.5t-189 -32.5q-217 0 -380 87q-83 44 -83 109q0 30 12.5 45.5t48.5 32.5q52 24 63.5 87t17.5 362q-7 246 -14.5 266t-15 23t-44.5 10q-77 15 -77 87zM611 297.5q0 -23.5 27 -42.5t72 -19q138 0 138 227q0 147 -58 207q-36 37 -86 37q-71 0 -77 -94l-15 -275 q-1 -17 -1 -40.5z" />
<glyph unicode="q" horiz-adv-x="1327" d="M34 493q0 227 161.5 364.5t423.5 138.5q66 0 106.5 -6t115.5 -23.5t108 -17.5t98.5 23.5t104.5 23.5q88 0 88 -71q0 -37 -10 -109.5t-20 -267.5t-10 -374t8.5 -238.5t17 -74.5t45 -42.5t36.5 -74.5q0 -128 -264 -128q-200 0 -333 56q-46 19 -74.5 51t-28.5 63t13.5 45 t69 41t55.5 116q0 51 -27 51q-14 0 -80.5 -33t-163.5 -33q-196 0 -318 146.5t-122 373.5zM521 527.5q0 -140.5 48 -221.5t102.5 -81t72.5 49.5t18 192t-10 200t-37 83.5q-29 26 -69 26q0 1 -1 1q-39 0 -81 -55q-43 -54 -43 -194.5z" />
<glyph unicode="r" horiz-adv-x="1095" d="M20 108q0 52 60 93q29 19 40 34.5t21 74.5t10 305q0 45 -10 64.5t-40 31.5q-71 28 -71 78.5t49 85t183 74.5q136 41 216 41h5q77 0 87 -15q12 -15 20 -96q5 -44 31 -44q20 0 38 29q80 125 209 125q142 0 195 -133q18 -46 18 -90.5t-22 -94t-57 -81.5q-64 -61 -157 -61 q-51 0 -85.5 18t-73 56t-56.5 38q-28 0 -36.5 -31.5t-8.5 -157.5t9 -168.5t21.5 -54t53.5 -23.5q90 -27 90 -94q0 -41 -29 -71.5t-101 -45.5t-253.5 -15t-268.5 29.5t-87 98.5z" />
<glyph unicode="s" horiz-adv-x="976" d="M41 267q0 92 72 92q28 0 51.5 -18.5t81.5 -80.5t85 -78.5t59 -16.5t52 17.5t20 46.5q0 45 -77 82q-161 79 -232.5 163t-71.5 198.5t73 200.5q104 123 284 123q50 0 118 -13t84 -13t52 13.5t52 13.5q46 0 88 -53q91 -113 91 -206q0 -40 -28 -66.5t-66.5 -26.5t-66 17 t-90 77t-97.5 60t-55.5 -20.5t-20.5 -48.5q0 -49 94 -92q169 -76 252 -159t83 -193q0 -139 -113.5 -226t-265.5 -87l-251 24l-72 -7q-47 0 -81 30.5t-69 110t-35 136.5z" />
<glyph unicode="t" horiz-adv-x="948" d="M-14 852v44q1 30 23 44l458 288q17 9 42 9h81q25 0 33.5 -11.5t8.5 -45.5v-135q0 -30 9.5 -39t40.5 -9h185q37 0 48 -13.5t11 -57.5v-59q0 -48 -14 -66.5t-51 -18.5h-181q-28 0 -38 -10t-10 -38v-338q0 -60 29.5 -98t72 -38t82 22.5t59 22.5t39.5 -29t20 -63 q0 -62 -68 -119q-142 -121 -344 -121q-160 0 -257 90.5t-97 238.5v462q0 23 -5.5 28.5t-28.5 5.5h-103q-29 0 -37 9.5t-8 44.5z" />
<glyph unicode="u" horiz-adv-x="1388" d="M20 845q0 76 115 101q196 43 392 43q59 0 59 -50v-542q0 -174 115 -174q29 0 57 16.5t44.5 52.5t16.5 201t-7.5 207.5t-17.5 54t-38 26.5q-57 30 -57 76q0 62 98 86q186 46 367 46q101 0 101 -107l-4 -162v-441q0 -34 53.5 -60t53.5 -72q0 -90 -213 -139 q-125 -29 -207.5 -29t-100 11t-20.5 43q-5 62 -38 62q-12 0 -22 -5.5t-61 -40.5q-101 -69 -217 -69q-192 0 -271 111q-67 93 -67 313q0 82 0.5 128t0.5 95q0 113 -72 153q-39 20 -49.5 32t-10.5 33z" />
<glyph unicode="v" horiz-adv-x="1285" d="M-14 873.5q0 60.5 94 88.5t297 28q331 0 331 -100q0 -36 -31 -63.5t-38 -38.5t-7 -36.5t44 -103.5t82 -78q25 0 41 19t52.5 87.5t36.5 95.5t-33 61.5t-33 65.5q0 48 63.5 69t208.5 21q204 0 204 -88q0 -51 -65 -71.5t-85.5 -41.5t-63.5 -105l-259 -504 q-60 -117 -102 -162.5t-89.5 -45.5t-76.5 34q-61 68 -107 154l-284 539q-23 44 -44.5 63.5t-59.5 29.5q-76 22 -76 82.5z" />
<glyph unicode="w" horiz-adv-x="2025" d="M-14 852q0 77 119.5 107.5t261.5 30.5q319 0 319 -119q0 -22 -18.5 -49t-18.5 -43t49.5 -109t87.5 -93q22 0 56 50t34 81t-15 49.5t-60 50.5t-45 65q0 117 388 117q151 0 218 -25.5t67 -82.5q0 -23 -8 -37t-43 -50q-11 -12 -11 -35t43 -104.5t77.5 -81.5t82 85 t47.5 106.5t-27.5 55.5t-27.5 77q0 91 239 91q168 0 213 -45q24 -25 24 -57t-28 -54q-5 -5 -56 -23.5t-75 -44.5t-58 -93l-250 -484q-110 -212 -194 -212q-36 0 -79.5 45.5t-109.5 151.5l-103 165q-36 56 -46.5 67t-27.5 11q-36 0 -74 -66l-167 -288q-48 -83 -108 -83 q-37 0 -68 25.5t-67 86.5l-300 499q-75 121 -117 158q-20 16 -58 27q-66 20 -66 77z" />
<glyph unicode="x" horiz-adv-x="1232" d="M0 65q0 41 15.5 55.5t58.5 22.5t66 36t142 216l72 119q10 16 10 22.5t-13 23.5l-85 106q-55 69 -86 93t-78 34q-79 17 -79 76q0 120 415 120q154 0 233 -18.5t79 -78.5q0 -23 -19.5 -54t-19.5 -47t31.5 -56t48.5 -40t52 44.5t35 63.5t-20.5 49t-20.5 49t16.5 40t51.5 35 t135 14t143 -22t43 -59t-14 -50t-58 -34t-60 -39.5t-111 -146.5l-69 -104q-12 -17 -12 -22t11 -23l60 -91q96 -145 130 -177.5t81.5 -53.5t47.5 -69q0 -68 -84 -93.5t-281 -25.5t-265 16q-90 22 -90 93q0 42 52 66q29 13 29 45t-41 90q-40 57 -64 56t-71 -72t-47 -97.5 t22.5 -53t22.5 -56.5q0 -87 -205 -87q-112 0 -161 22t-49 63z" />
<glyph unicode="y" horiz-adv-x="1268" d="M0 848q0 142 446 142q249 0 249 -121q0 -25 -22.5 -58t-22.5 -57q0 -39 46.5 -124t76.5 -85t63 61.5t33 113t-31.5 88.5t-31.5 69q0 51 68 81.5t182 30.5q212 0 212 -102q0 -37 -21.5 -59.5t-74 -41.5t-88.5 -73.5t-93 -208.5l-132 -363q-92 -252 -216.5 -371t-290 -119 t-247 69t-81.5 154t49.5 137.5t121.5 52.5t116 -48q21 -22 28 -39t21 -75q11 -44 46 -44t56 27t21 70.5t-52 153.5l-241 513q-38 80 -57 100t-61 38q-72 32 -72 88z" />
<glyph unicode="z" horiz-adv-x="1053" d="M14 714q0 90 59.5 191.5t112.5 101.5q12 0 49.5 -13t70 -16t243.5 -7h265q92 0 118 -3q55 -8 55 -63q0 -37 -33 -95l-265 -471q-33 -59 -33 -83q0 -47 61 -47t91.5 20.5t55.5 69t40 64t47.5 15.5t60.5 -35t28 -93.5t-34 -129t-79.5 -111.5t-70.5 -41t-61.5 15.5 t-103.5 16.5h-524q-133 0 -133 77q0 17 10 36t70 119l229 368q64 102 64 129q0 40 -84 40q-43 0 -68.5 -16.5t-56.5 -66t-48.5 -65t-51.5 -15.5t-59 30.5t-25 77.5z" />
<glyph unicode="{" horiz-adv-x="1021" d="M71 498.5q0 74.5 68 94.5t90.5 57t22.5 127v314q0 160 72 227t268.5 67t260.5 -13q115 -22 115 -98q0 -70 -109 -70q-12 0 -37 0.5t-32 0.5q-93 0 -126 -18.5t-37 -70.5q-1 -16 -1 -110v-248q-2 -181 -97 -241q-8 -6 -8 -17.5t35 -40.5q70 -59 70 -220v-249 q0 -130 12 -154q21 -45 154 -45l67 2q109 0 109 -70q0 -81 -115 -99q-86 -13 -271.5 -13t-257.5 67t-72 228v313q0 90 -22.5 127.5t-90.5 56.5q-68 21 -68 95.5z" />
<glyph unicode="|" horiz-adv-x="1024" d="M286 -341v1706h451v-1706h-451z" />
<glyph unicode="}" horiz-adv-x="1021" d="M54 -277q0 70 109 70h88.5t104.5 16t34.5 42.5t5.5 138.5v249q0 93 21.5 146.5t75.5 93.5q8 6 8 17.5t-35 40.5q-70 59 -70 221v248q0 130 -12 154q-21 45 -154 45q-5 0 -30 -0.5t-37 -0.5q-109 0 -109 70q0 81 115 98q87 13 272 13t257 -67t72 -227v-314 q0 -90 22.5 -127t90.5 -57t68 -88t-47 -93q-8 -5 -49 -17q-56 -22 -72 -67q-13 -33 -13 -109v-313q0 -161 -72 -228t-269 -67t-261 13q-114 22 -114 99z" />
<glyph unicode="~" horiz-adv-x="1365" d="M187 619q44 116 86 179q98 148 245 148q36 0 64 -7.5t146.5 -47.5t146 -40t47 19t53.5 82l211 -179q-41 -103 -70 -153q-101 -177 -260 -177q-31 0 -63 9t-149 49t-143 40q-50 0 -103 -101z" />
<glyph unicode="&#xa1;" horiz-adv-x="631" d="M82 -80q0 101 36 220t98 215.5t104 97.5q41 0 113 -133q117 -215 117 -415q0 -113 -51 -191q-62 -96 -183 -96q-89 0 -152 64q-82 85 -82 238zM99 780.5q0 87.5 63.5 151t151.5 64t153 -61t65 -151.5t-62 -155t-154.5 -65t-154.5 65t-62 152.5z" />
<glyph unicode="&#xa2;" d="M157 567q0 178 107.5 294.5t224.5 146.5q22 6 27.5 14t5.5 35v27q0 41 13.5 54.5t54.5 13.5h59q41 0 54.5 -13.5t13.5 -49t6.5 -44t29.5 -11.5q132 -14 225.5 -92.5t93.5 -165.5t-51 -135t-117.5 -48t-95.5 26t-51 95q-31 96 -101 96q-50 0 -83.5 -45t-33.5 -130t71 -160 t152 -75t167 37q20 8 41 8t44.5 -31t23.5 -69q0 -62 -78 -128q-45 -39 -88.5 -58t-94.5 -30.5t-55.5 -20t-4.5 -33.5v-31q0 -42 -13.5 -55.5t-54.5 -13.5h-59q-39 0 -53.5 14.5t-14.5 54.5v39q0 29 -6.5 36.5t-51 16.5t-112.5 60q-195 146 -195 371z" />
<glyph unicode="&#xa3;" d="M20 212q0 99 47.5 155.5t127.5 56.5q33 0 67.5 -9t47.5 -9q26 0 26 21q0 8 -3 19.5t-9.5 49t-23 46.5t-90.5 9l-55 -2q-41 0 -58 23t-17 73.5t14.5 65t24.5 16.5t57.5 2.5t47.5 22.5q0 8 -13.5 52t-13.5 97q0 142 102 237q143 134 429 134q202 0 315 -90.5t113 -215.5 q0 -73 -44.5 -116t-114 -43t-107.5 34.5t-38 92.5q0 14 0.5 30.5t0.5 46t-23.5 50t-76.5 20.5q-107 0 -107 -131q0 -56 11.5 -114t23.5 -73.5t23 -17.5t68 -4l60 1q43 0 60.5 -22t17.5 -74.5t-22 -69.5q-10 -9 -79.5 -9t-88.5 -10.5t-34 -51t-32.5 -74t-17.5 -45.5 q0 -26 51 -47q103 -44 180 -44t138 91q32 47 56.5 65.5t62.5 18.5t66 -31.5t28 -88t-32.5 -133t-83.5 -131.5q-103 -113 -271 -113q-76 0 -150 32t-114.5 65.5t-58 33.5t-79.5 -48q-105 -82 -200 -82t-152 69.5t-57 168.5z" />
<glyph unicode="&#xa4;" d="M53 172q0 21 30 47q45 37 58 52t13 30.5t-14 42.5q-52 96 -52 224t68 232q16 24 16 44t-11 33.5t-59.5 56.5t-48.5 65.5t36 40.5q127 62 154 62t39 -9.5t46.5 -51.5t52.5 -42t42 9q105 39 213 39t160.5 -17.5t66 -17.5t26 11t38.5 46.5t57.5 35.5t136.5 -56 q55 -29 55 -57q0 -19 -33 -44t-56 -52.5t-23 -43.5t23 -54q55 -91 55 -211.5t-72 -225.5q-16 -23 -16 -36t28.5 -46t61 -58.5t32.5 -46t-37 -44.5t-88.5 -45t-71.5 -21t-29.5 9t-40 48.5t-39 46t-24 6.5t-46.5 -12q-106 -41 -217 -41t-192 26q-14 4 -28 4t-49.5 -42.5 t-60.5 -42.5t-86 25t-87.5 42.5t-26.5 38.5zM452 740q0 -56 24.5 -159t57.5 -183t102 -80t103 31.5t34 96t-25.5 171.5t-59 175.5t-98.5 69.5t-101.5 -32.5t-36.5 -89.5z" />
<glyph unicode="&#xa5;" d="M-11 1153q0 66 75.5 93t249.5 27t238 -14q113 -25 113 -92q0 -27 -31.5 -57t-31.5 -56t42.5 -85.5t74 -59.5t74 56t42.5 77t-5.5 29t-32.5 35t-27 64q0 102 250 102q121 0 154 -12q66 -24 66 -94q0 -37 -16.5 -55.5t-53.5 -28.5t-61.5 -29.5t-78.5 -85.5 q-75 -92 -75 -103t15 -11t32.5 1.5t59.5 1.5t65 -17t23 -61q0 -63 -78 -61q-33 1 -56 -1h-103q-60 -4 -66.5 -11.5t-16 -51t-9.5 -75t26 -31.5h118l63 2q57 0 79 -17t22 -61q0 -64 -80 -61q-36 1 -53 -1h-108q-39 0 -51.5 -6.5t-12.5 -36.5t6 -75t19.5 -63t47.5 -36 q65 -35 65 -87q0 -125 -362 -125q-149 0 -270 27t-121 100q0 58 60.5 80t69.5 45.5t17.5 69t8.5 66.5q0 34 -40 31l-13 -1h-53l-62 -2q-53 0 -75 18t-22 60.5t23.5 54t105.5 11.5h88q32 0 42.5 6t10.5 40.5t-15.5 76.5t-43.5 42l-24 -1h-49l-36 -1l-24 -1q-54 0 -76 18 t-22 59.5t19.5 53.5t67.5 12.5t55.5 3.5t7.5 16t-15.5 32t-34.5 45q-77 104 -121.5 125t-57 36.5t-12.5 49.5z" />
<glyph unicode="&#xa6;" horiz-adv-x="1024" d="M286 314h451v-655h-451v655zM286 610v755h451v-755h-451z" />
<glyph unicode="&#xa7;" horiz-adv-x="1475" d="M134 -98q0 38 55 63q79 34 142 33.5t86 -14.5t69 -67q87 -101 228 -101q68 0 107.5 25t39.5 67q0 70 -142 101q-108 24 -225 65t-184.5 78.5t-112.5 113t-45 167t51 166.5t112 112q17 10 17 20.5t-13 19.5q-147 106 -147 267.5t135 255.5q160 111 455 111t464 -102 q90 -54 90 -120q0 -47 -70.5 -85.5t-119 -38.5t-66 10t-70.5 60q-82 78 -198 78q-55 0 -91.5 -23.5t-36.5 -61.5q0 -76 178 -109q67 -13 162 -42t163.5 -59.5t121.5 -108.5t53 -169q0 -177 -164 -289q-23 -15 -23 -27t28 -28.5t61.5 -48t45.5 -50.5q45 -70 45 -168 q0 -165 -134 -269q-83 -65 -189.5 -94t-262.5 -29q-331 0 -515 136q-42 30 -71 73.5t-29 81.5zM552 538q0 -63 87 -90l188 -56q9 -3 18 -3q19 0 39.5 35.5t20.5 67.5q0 66 -86 90l-186 53q-10 3 -24.5 3t-35.5 -33t-21 -67z" />
<glyph unicode="&#xa8;" horiz-adv-x="1024" d="M51 1267q0 73 64 120.5t159 47.5t139.5 -36.5t44.5 -110t-77 -123t-162 -49.5t-126.5 39t-41.5 112zM567 1264q0 73 63.5 120.5t158.5 47.5t140 -36.5t45 -110t-77 -123t-162 -49.5t-126.5 39t-41.5 112z" />
<glyph unicode="&#xa9;" horiz-adv-x="1594" d="M48 697.5q0 186.5 110 356.5t286 254t371 84t374 -105t268 -270t89 -350t-110 -355t-283.5 -254.5t-368 -84.5t-375 103t-271 269t-90.5 352.5zM198 682q0 -162 89.5 -300.5t229.5 -206t282 -67.5q247 0 423 168q175 168 175 406q0 163 -87.5 300.5t-222.5 204t-280 70.5 q-255 0 -431 -166q-86 -81 -132 -187.5t-46 -221.5zM377 687q0 84 40 160.5t111 130.5q125 95 278 95q84 0 139.5 -25t68.5 -25l48 7q44 0 78 -56t34 -118.5t-30 -95t-82 -32.5t-88 62q-70 121 -180 121q-55 0 -87 -37.5t-32 -100.5t25 -121.5t73.5 -100t139.5 -41.5t147 50 q24 21 43 21t35 -19.5t16 -49t-20.5 -69.5t-41 -56t-50 -21.5t-89.5 -32.5t-151 -27q-149 0 -265 83q-72 51 -116 132.5t-44 165.5z" />
<glyph unicode="&#xaa;" horiz-adv-x="777" d="M28 699.5q0 85.5 86 138.5t225 53q33 0 41 5t8 26q0 112 -53 112q-30 0 -66 -47q-59 -77 -124 -77q-35 0 -56.5 19.5t-21.5 58.5t54.5 77.5t133.5 60.5t153 22q142 0 218 -75q50 -48 50 -146l-1 -84q0 -85 8.5 -109.5t40.5 -28.5q26 -4 26 -32q0 -53 -62 -98t-133.5 -45 t-111.5 45q-11 13 -20.5 13t-29.5 -13q-66 -45 -150.5 -45t-137.5 34q-77 50 -77 135.5zM301 728q0 -57 46 -57t46 78q0 44 -27 44t-46 -19.5t-19 -45.5z" />
<glyph unicode="&#xab;" horiz-adv-x="1094" d="M27 533q0 44 36 98.5t132.5 156t151 143t93.5 41.5t68 -25.5t29 -55t-15.5 -58t-89 -138t-73.5 -152t27 -91t138 -219.5q19 -28 19 -60.5t-27.5 -60t-63.5 -27.5t-116 60.5t-194.5 183t-114.5 204.5zM550 534q0 44 36 99t132.5 156t151 142.5t93.5 41.5t68 -25.5t29 -55 t-15 -57t-89 -138.5t-74 -153t27 -91t138 -219q19 -29 19 -61t-27 -59.5t-63.5 -27.5t-116.5 60.5t-194.5 183t-114.5 204.5z" />
<glyph unicode="&#xac;" horiz-adv-x="1024" d="M68 229v392h887v-621h-437v229h-450z" />
<glyph unicode="&#xad;" horiz-adv-x="582" d="M0 404q0 32 23.5 108t48 120.5t46 62.5t56.5 19l238 -16q65 0 96.5 5t42.5 5q31 0 31 -44q0 -102 -68 -240q-24 -47 -40.5 -64t-37 -17t-80 10t-175.5 10l-140 -7q-41 0 -41 48z" />
<glyph unicode="&#xae;" horiz-adv-x="1594" d="M48 697.5q0 186.5 110 356.5t286 254t371 84t374 -105t268 -270t89 -350t-110 -355t-283.5 -254.5t-368 -84.5t-375 103t-271 269t-90.5 352.5zM198 682q0 -162 89.5 -300.5t229.5 -206t282 -67.5q247 0 423 168q175 168 175 406q0 163 -87.5 300.5t-222.5 204t-280 70.5 q-255 0 -431 -166q-86 -81 -132 -187.5t-46 -221.5zM361 391q0 24 35.5 46t41.5 72t6 212t-7.5 187t-30.5 36q-45 21 -45 51q0 68 132 68l138 -6l209 9q125 0 200 -54t75 -144q0 -51 -26.5 -93.5t-55.5 -55t-29 -21.5t42 -24q91 -33 112 -185q4 -32 12.5 -41.5t40 -17.5 t31.5 -45.5t-49.5 -61t-144.5 -23.5t-141 46.5t-83 190.5q-19 83 -81 88q-19 0 -23.5 -11t-4.5 -65t6 -79t36 -41t30 -51.5t-48.5 -51.5t-162.5 -16q-215 0 -215 81zM709 773q-1 -24 22 -24q47 0 67.5 22t20.5 72q0 95 -70 95q-19 0 -25.5 -7.5t-7.5 -28.5l-7 -124v-5z" />
<glyph unicode="&#xaf;" horiz-adv-x="1024" d="M0 1475v257h1024v-257h-1024z" />
<glyph unicode="&#xb0;" horiz-adv-x="848" d="M68 1061q0 137 110 231t270 94q112 0 185 -50q146 -102 146 -262q0 -133 -118.5 -223.5t-266.5 -90.5t-237 82t-89 219zM310 1189q0 -42 19 -119t44 -136t82 -59q80 0 80 90q0 53 -19.5 133.5t-45 130t-70 50.5t-67.5 -23.5t-23 -66.5z" />
<glyph unicode="&#xb1;" d="M123 54.5q0 16.5 21.5 77.5t42 97.5t61.5 36.5l193 -11h506q78 0 96.5 2.5t23.5 2.5q39 0 39 -40q0 -22 -17 -77.5t-38 -95.5t-54 -40l-159 14h-448l-221 -6q-19 0 -32.5 11.5t-13.5 28zM123 682.5q0 16.5 21.5 77.5t42 98t60.5 37l167 -11h27q54 0 53 54v10 q-1 62 -7.5 105t-6.5 54q0 36 50 58q116 51 164 51t48 -39q0 -4 -2.5 -21.5t-2.5 -98.5v-119q1 -53 55 -54h155q76 0 95 2.5t25 2.5q39 0 39 -40q0 -22 -17 -77.5t-38 -95.5t-54 -40l-159 14h-46q-56 0 -56 -49q0 -8 2 -26l11 -136q0 -44 -61 -73q-33 -15 -89.5 -33 t-72.5 -18t-27.5 13.5t-11.5 33.5l7 220v13q3 57 -55 55h-49q-126 0 -169 -3.5t-57 -3.5t-27.5 11.5t-13.5 28z" />
<glyph unicode="&#xb2;" horiz-adv-x="821" d="M22 584q0 16 13.5 31t95.5 86.5t139 145.5t57 116q0 58 -62 58q-28 0 -42 -7t-66 -47q-16 -12 -45 -12t-56.5 23.5t-27.5 51.5q0 55 87 113q142 93 311 93q72 0 138 -17q164 -43 164 -172q0 -107 -158 -229q-53 -40 -53 -55.5t15 -25.5t35 -10q53 0 92.5 34.5t57.5 34.5 q65 0 65 -86.5t-46 -153t-102 -66.5q-30 0 -47 24t-27 28t-38 4h-436q-64 0 -64 38z" />
<glyph unicode="&#xb3;" horiz-adv-x="820" d="M8 526q0 29 22 48.5t46.5 19.5t70.5 -10.5t89 -10.5q95 0 141 52q22 26 22 59t-35 58.5t-79.5 25.5t-69 -6.5t-32.5 -6.5q-19 0 -38.5 33t-19.5 58t8 30.5t54 20.5t75.5 43t29.5 57.5t-26.5 52t-62.5 22.5t-77.5 -19.5t-55 -19.5t-30 23.5t-16.5 48.5q0 50 103 91 t234.5 41t216 -44.5t84.5 -117t-75 -122.5q-17 -11 -17 -21t30 -14q85 -12 131.5 -60.5t46.5 -134t-66 -157.5q-130 -142 -412 -142q-132 0 -212 28t-80 74z" />
<glyph unicode="&#xb4;" horiz-adv-x="1024" d="M347 1166q0 27 10.5 40.5t58 49t57.5 46t10 24.5l-16 45q0 25 45 41.5t126.5 17t134.5 -19.5q184 -70 11 -201q-151 -117 -334 -117q-103 0 -103 74z" />
<glyph unicode="&#xb5;" d="M-5 -230q0 25 12.5 41t30.5 16l49 -6q23 0 39.5 15t16.5 36l-8 84v471q0 157 -10 198.5t-49.5 62.5t-48.5 31.5t-9 29.5q0 67 102 89q173 38 348 38q51 0 51 -44v-480q0 -155 101 -155q27 0 51.5 14.5t39 46.5t14.5 178.5t-7 184t-15.5 48t-33.5 23.5q-51 26 -51 67 q0 55 87 77q164 40 325 40q90 0 90 -95l-2 -82l-2 -62v-390q0 -30 47 -53t47 -62q0 -76 -167 -119q-119 -31 -198.5 -31t-95 10t-19 51t-31.5 41q-14 0 -79.5 -44.5t-131.5 -53.5q-6 -152 -39 -208.5t-107.5 -92t-156 -35.5t-136 34t-54.5 86z" />
<glyph unicode="&#xb6;" d="M27 975q0 236 158 347q90 63 205 63q40 0 157.5 -13t268.5 -13l224 5q78 0 106 -28t28 -58q0 -59 -89 -83q-61 -16 -75 -41t-14 -120v-1105q0 -76 5.5 -129.5t5.5 -65.5q0 -43 -55 -71q-29 -16 -80 -34t-64 -18q-37 0 -37 47l6 220v1220q0 36 -9.5 45.5t-45.5 9.5h-32 q-37 0 -46 -9t-9 -46v-1169q0 -76 5.5 -129.5t5.5 -65.5q0 -43 -55 -71q-29 -15 -80 -33.5t-64 -18.5q-37 0 -37 47l6 175v669q0 39 -10 48.5t-59.5 12.5t-96.5 22q-114 47 -175 167q-48 95 -48 223z" />
<glyph unicode="&#xb8;" horiz-adv-x="1024" d="M319 -258q0 65 104 80q28 5 28 23q0 12 -20 40l-78 115h152l139 -136q39 -38 50 -56t11 -43q0 -51 -60.5 -85t-149.5 -34t-132.5 32t-43.5 64z" />
<glyph unicode="&#xb9;" horiz-adv-x="821" d="M62 623q0 21 17.5 36t44.5 16l67 -6q32 0 45.5 32.5t13.5 293.5q0 29 -12.5 39.5t-45.5 10.5l-48 -2q-24 0 -39.5 13t-15.5 39t56 58.5t180 57.5t235 25t111 -58q0 -29 -40.5 -46t-47.5 -44.5t-7 -186t14.5 -194.5t87 -39t72.5 -51.5t-77 -64.5q-107 -22 -247 -22 t-252 23t-112 70z" />
<glyph unicode="&#xba;" horiz-adv-x="823" d="M32 827q0 136 118 228.5t287 92.5q120 0 197 -49q157 -100 157 -259q0 -132 -127 -221t-283 -89t-252.5 80.5t-96.5 216.5zM331 935q0 -46 21.5 -124.5t39.5 -100.5t43 -22q52 0 52 59.5t-19 131.5t-38.5 95.5t-43.5 23.5q-55 0 -55 -63z" />
<glyph unicode="&#xbb;" horiz-adv-x="1094" d="M27 169q0 28 13 52t92 145t79 170.5t-74 160.5t-89 138.5t-15 57.5t29 55t69.5 25t104.5 -51t157.5 -153t121.5 -148t28 -87q0 -90 -176.5 -269t-252.5 -179q-33 0 -60 27.5t-27 55.5zM550 168.5q0 28.5 13 52t92 144t79 170.5t-74 160.5t-89 138t-15 57.5t29 55t69.5 25 t104.5 -51t157.5 -153t121.5 -148t28 -86q0 -91 -176.5 -269.5t-252.5 -178.5q-33 0 -60 27.5t-27 56z" />
<glyph unicode="&#xbc;" horiz-adv-x="1914" d="M62 623q0 21 17.5 36t44.5 16l67 -6q32 0 45.5 32.5t13.5 293.5q0 29 -12.5 39.5t-45.5 10.5l-48 -2q-24 0 -39.5 13t-15.5 39.5t56 58t180.5 57t235 25.5t110.5 -58q0 -29 -40.5 -46t-47.5 -44.5t-7 -186t14.5 -194.5t87 -39t72.5 -51.5t-77 -64.5q-107 -22 -247 -22 t-252 23t-112 70zM475 -87.5q0 21.5 24.5 57t161.5 254.5l390 657q121 212 154 279.5t56.5 85t67.5 17.5q95 0 95 -47q0 -33 -67.5 -132t-174.5 -280l-309 -523q-30 -50 -100.5 -178.5t-88.5 -166t-38.5 -56.5t-63 -19t-75 15t-32.5 36.5zM1118 124q0 53 22 94.5t97 125.5 l163 180q115 127 179.5 169.5t136 42.5t71.5 -70v-408q0 -25 18 -25h27q36 1 38 -41v-120q0 -37 -40 -42q-20 -2 -24 -6t-4 -20v-70q3 -44 -44 -46h-218q-48 2 -45 46v61q0 22 -8 29.5t-32 7.5h-249q-48 0 -68 19.5t-20 72.5zM1299 240q0 -15 15 -18.5t85 -5.5l43 -1 q35 0 45 5t14 26.5t4 113.5v29q0 46 -27 46q-20 0 -40 -22l-98 -112q-41 -46 -41 -61z" />
<glyph unicode="&#xbd;" horiz-adv-x="1914" d="M62 623q0 21 17.5 36t44.5 16l67 -6q32 0 45.5 32.5t13.5 293.5q0 29 -12.5 39.5t-45.5 10.5l-48 -2q-24 0 -39.5 13t-15.5 39.5t56 58t180.5 57t235 25.5t110.5 -58q0 -29 -40.5 -46t-47.5 -44.5t-7 -186t14.5 -194.5t87 -39t72.5 -51.5t-77 -64.5q-107 -22 -247 -22 t-252 23t-112 70zM475 -87.5q0 21.5 24.5 57t161.5 254.5l390 657q121 212 154 279.5t56.5 85t67.5 17.5q95 0 95 -47q0 -33 -67.5 -132t-174.5 -280l-309 -523q-30 -50 -100.5 -178.5t-88.5 -166t-38.5 -56.5t-63 -19t-75 15t-32.5 36.5zM1115 38q0 16 13.5 31t95.5 86.5 t139 145.5t57 116q0 58 -61 58q-29 0 -43 -7t-66 -47q-16 -12 -45 -12t-56.5 23.5t-27.5 51.5q0 55 87 113q141 93 311 93q72 0 137 -17q165 -43 165 -172q0 -108 -158 -229q-53 -40 -53 -55.5t15 -25.5t35 -10q53 0 92.5 34.5t57.5 34.5q65 0 65 -86.5t-46 -153t-102 -66.5 q-30 0 -46.5 24t-27 28t-38.5 4h-436q-64 0 -64 38z" />
<glyph unicode="&#xbe;" horiz-adv-x="1914" d="M8 526q0 29 22 48.5t46.5 19.5t70.5 -10.5t89 -10.5q95 0 141 52q22 26 22 59.5t-35 58.5t-79.5 25t-69 -6.5t-32.5 -6.5q-19 0 -38.5 33t-19.5 58t8 30.5t54 20.5t75.5 43t29.5 57.5t-26.5 52t-62 22.5t-77 -19.5t-55.5 -19.5t-30.5 23.5t-16.5 48.5q0 50 103 91 t234.5 41t216 -44.5t84.5 -117t-75 -122.5q-17 -11 -17 -21t30 -14q85 -12 131.5 -60t46.5 -134t-66 -158q-130 -142 -412 -142q-132 0 -212 28t-80 74zM475 -87.5q0 21.5 25 58t161 253.5l390 657q121 209 154.5 278t57 86.5t67.5 17.5q95 0 95 -47q0 -33 -68.5 -133.5 t-174.5 -278.5l-309 -523q-81 -137 -144 -259.5t-83.5 -141.5t-63 -19t-75 15t-32.5 36.5zM1118 124q0 53 22 95t97 125l163 180q115 126 179.5 169t136 43t71.5 -70v-408q0 -25 18 -25h27q38 1 39 -41v-120q0 -38 -41 -42q-20 -2 -24 -6t-4 -20v-70q3 -44 -44 -46h-218 q-48 2 -45 46v61q0 22 -8 29.5t-32 7.5h-249q-48 0 -68 19.5t-20 72.5zM1299 240q0 -15 15 -18.5t85 -5.5l43 -1q35 0 45 5t14 26t4 114v29q0 46 -27 46q-20 0 -40 -22l-98 -112q-41 -46 -41 -61z" />
<glyph unicode="&#xbf;" horiz-adv-x="987" d="M20 -13q0 108 95 187q25 21 107.5 62t105 61.5t46 73.5t51 73.5t88.5 20.5t96 -35t35 -93t-17 -96.5t-84.5 -140t-67.5 -187.5q0 -43 19.5 -70.5t50 -27.5t43.5 19.5t19 73.5q10 102 67 155.5t135 53.5t121 -38.5t43 -102.5q0 -112 -89 -217q-61 -72 -163 -113 t-217.5 -41t-232.5 49t-184 137t-67 196zM311 780.5q0 87.5 63.5 151t151.5 64t153 -61t65 -151.5t-62 -155t-154.5 -65t-154.5 65t-62 152.5z" />
<glyph unicode="&#xc0;" horiz-adv-x="1693" d="M0 94q0 31 15.5 48t68 35.5t86 60t95.5 177.5l141 309q78 170 104.5 254.5t27.5 168t10.5 117t42.5 65.5q69 70 173 70t196 -79q128 -108 372 -629l189 -405q27 -56 45 -73.5t55 -23.5q72 -11 72 -78.5t-88 -99.5t-301 -32t-292.5 14t-109 41.5t-29.5 62t15.5 51t60 31.5 t44.5 53q0 67 -84 79t-229.5 12t-166.5 -13t-33 -39t-12 -49t8.5 -29.5t55.5 -21.5q61 -18 61 -72q0 -119 -285 -119q-162 0 -235 21.5t-73 92.5zM462 1703.5q0 46.5 67.5 77t155 31t133 -16t45.5 -42.5l-15 -44q0 -15 10 -25t55 -43l20 -16q51 -39 51 -76q0 -74 -103 -74 q-182 0 -334 116q-85 66 -85 112.5zM590 590q0 -25 46 -25h196q54 0 54 24q0 33 -54.5 127t-72.5 114t-38 20q-36 0 -60 -67q-71 -160 -71 -193z" />
<glyph unicode="&#xc1;" horiz-adv-x="1693" d="M0 94q0 31 15.5 48t68 35.5t86 60t95.5 177.5l141 309q78 170 104.5 254.5t27.5 168t10.5 117t42.5 65.5q69 70 173 70t196 -79q128 -108 372 -629l189 -405q27 -56 45 -73.5t55 -23.5q72 -11 72 -78.5t-88 -99.5t-301 -32t-292.5 14t-109 41.5t-29.5 62t15.5 51t60 31.5 t44.5 53q0 67 -84 79t-229.5 12t-166.5 -13t-33 -39t-12 -49t8.5 -29.5t55.5 -21.5q61 -18 61 -72q0 -119 -285 -119q-162 0 -235 21.5t-73 92.5zM590 590q0 -25 46 -25h196q54 0 54 24q0 33 -54.5 127t-72.5 114t-38 20q-36 0 -60 -67q-71 -160 -71 -193zM613 1549 q0 26 10.5 39.5t58 49t57.5 46t10 25.5l-16 44q0 26 45 42t126.5 16.5t134.5 -19.5q98 -37 96 -92q-2 -45 -85 -109q-151 -116 -334 -116q-103 0 -103 74z" />
<glyph unicode="&#xc2;" horiz-adv-x="1693" d="M0 94q0 31 15.5 48t68 35.5t86 60t95.5 177.5l141 309q78 170 104.5 254.5t27.5 168t10.5 117t42.5 65.5q69 70 173 70t196 -79q128 -108 372 -629l189 -405q27 -56 45 -73.5t55 -23.5q72 -11 72 -78.5t-88 -99.5t-301 -32t-292.5 14t-109 41.5t-29.5 62t15.5 51t60 31.5 t44.5 53q0 67 -84 79t-229.5 12t-166.5 -13t-33 -39t-12 -49t8.5 -29.5t55.5 -21.5q61 -18 61 -72q0 -119 -285 -119q-162 0 -235 21.5t-73 92.5zM422 1549.5q0 34.5 33 73t115 100.5q155 117 223 117q33 0 107 -41.5t148 -99.5t100.5 -90t26.5 -61.5t-22 -52.5t-56 -23 t-146.5 53.5t-150 53.5t-57.5 -7.5t-109 -54.5t-129 -47t-61.5 22.5t-21.5 57zM590 590q0 -25 46 -25h196q54 0 54 24q0 33 -54.5 127t-72.5 114t-38 20q-36 0 -60 -67q-71 -160 -71 -193z" />
<glyph unicode="&#xc3;" horiz-adv-x="1693" d="M0 94q0 31 15.5 48t68 35.5t86 60t95.5 177.5l141 309q78 170 104.5 254.5t27.5 168t10.5 117t42.5 65.5q69 70 173 70t196 -79q128 -108 372 -629l189 -405q27 -56 45 -73.5t55 -23.5q72 -11 72 -78.5t-88 -99.5t-301 -32t-292.5 14t-109 41.5t-29.5 62t15.5 51t60 31.5 t44.5 53q0 67 -84 79t-229.5 12t-166.5 -13t-33 -39t-12 -49t8.5 -29.5t55.5 -21.5q61 -18 61 -72q0 -119 -285 -119q-162 0 -235 21.5t-73 92.5zM399 1641.5q0 82.5 47 129.5t130 51q37 2 72.5 -8t119.5 -46q94 -41 129 -54t46 -13q25 0 28 26v33q0 26 28.5 45.5t78 19.5 t84.5 -38t35 -110.5t-54.5 -133t-127.5 -60.5q-43 0 -124 27t-150.5 64t-90.5 37t-32 -6.5t-11 -13.5l2 -51q0 -18 -29 -33.5t-65 -15.5t-76 34t-40 116.5zM590 590q0 -25 46 -25h196q54 0 54 24q0 33 -54.5 127t-72.5 114t-38 20q-36 0 -60 -67q-71 -160 -71 -193z" />
<glyph unicode="&#xc4;" horiz-adv-x="1693" d="M0 94q0 31 15.5 48t68 35.5t86 60t95.5 177.5l141 309q78 170 104.5 254.5t27.5 168t10.5 117t42.5 65.5q69 70 173 70t196 -79q128 -108 372 -629l189 -405q27 -56 45 -73.5t55 -23.5q72 -11 72 -78.5t-88 -99.5t-301 -32t-292.5 14t-109 41.5t-29.5 62t15.5 51t60 31.5 t44.5 53q0 67 -84 79t-229.5 12t-166.5 -13t-33 -39t-12 -49t8.5 -29.5t55.5 -21.5q61 -18 61 -72q0 -119 -285 -119q-162 0 -235 21.5t-73 92.5zM287 1636q0 68 63 116q97 75 235 74q65 -1 108 -37t43 -108.5t-72 -119.5q-102 -66 -225 -66q-68 0 -110 36.5t-42 104.5z M590 590q0 -25 46 -25h196q54 0 54 24q0 33 -54.5 127t-72.5 114t-38 20q-36 0 -60 -67q-71 -160 -71 -193zM860 1650q0 68 63 116q97 75 235 74q65 -1 108 -36.5t43 -109t-72 -119.5q-103 -66 -225 -66q-68 0 -110 36.5t-42 104.5z" />
<glyph unicode="&#xc5;" horiz-adv-x="1693" d="M0 94q0 31 15.5 48t68 35.5t86 60t95.5 177.5l141 309q78 170 104.5 254.5t27.5 168t10.5 117t42.5 65.5q69 70 173 70t196 -79q128 -108 372 -629l189 -405q27 -56 45 -73.5t55 -23.5q72 -11 72 -78.5t-88 -99.5t-301 -32t-292.5 14t-109 41.5t-29.5 62t15.5 51t60 31.5 t44.5 53q0 67 -84 79t-229.5 12t-166.5 -13t-33 -39t-12 -49t8.5 -29.5t55.5 -21.5q61 -18 61 -72q0 -119 -285 -119q-162 0 -235 21.5t-73 92.5zM500 1674q0 98 78 152t216 54q220 0 281 -110q23 -42 23 -87q0 -100 -77.5 -154t-219.5 -54q-301 0 -301 199zM590 590 q0 -25 46 -25h196q54 0 54 24q0 33 -54.5 127t-72.5 114t-38 20q-36 0 -60 -67q-71 -160 -71 -193zM700 1675.5q0 -51.5 26.5 -81.5t70.5 -30t71.5 31.5t27.5 84.5q0 106 -98 108q-46 0 -72 -30.5t-26 -82z" />
<glyph unicode="&#xc6;" horiz-adv-x="2119" d="M0 101q0 34 19 53.5t59 33.5t56 28t102 141t209 352l211 387q38 68 38 101l-2 56q0 65 64 95q30 14 59 17t144 3h665q122 1 172 19t65 18q90 0 137 -143q24 -70 24 -134t-29.5 -104t-76 -40t-94.5 71t-118.5 95.5t-191 24.5t-151.5 -24t-31 -113v-158q0 -39 5.5 -53.5 t28.5 -22t81.5 -7.5t75 21.5t19.5 76t27.5 84.5t56.5 30q65 0 90 -55q14 -35 24.5 -111t10.5 -178t-38 -192q-14 -34 -40.5 -55t-54.5 -21q-53 0 -62 76.5t-37 103.5t-82 27t-72.5 -24t-18.5 -87.5t6.5 -141.5t14.5 -101q10 -33 54.5 -43t181 -10t221.5 69q47 38 77.5 103.5 t53 84t60.5 18.5t65.5 -37t27.5 -93.5t-26 -137.5t-60 -137.5t-54 -71.5t-51 -15t-67 9t-105 10l-894 -6q-114 -1 -114 85q0 60 66 88t66 66.5t-45 50t-162 11.5t-142 -8q-39 -12 -39 -51q0 -20 9.5 -30.5t47.5 -30.5q63 -33 63 -85q0 -109 -291 -109q-308 0 -308 121z M657 588.5q0 -31.5 30 -44.5t100.5 -13t89.5 30.5t19 124.5v141q0 51 -7.5 73t-30 22t-36.5 -15t-40 -61l-95 -173q-30 -53 -30 -84.5z" />
<glyph unicode="&#xc7;" horiz-adv-x="1475" d="M48 695.5q0 211.5 129.5 382t294 242.5t315 72t299.5 -64q67 -29 88 -29l87 13q52 0 89 -45q98 -118 98 -291q0 -121 -83 -177q-46 -31 -99 -31t-85.5 22.5t-68.5 89t-63.5 102.5t-68.5 64q-96 68 -200 68t-164.5 -74.5t-60.5 -224t87 -292.5q118 -190 336 -190 q82 0 160 26t121 66t73 40t54.5 -32.5t24.5 -81.5t-31.5 -118.5t-63 -98.5t-51 -38t-53.5 -14t-106.5 -38.5t-136 -49t-86 -16t-22.5 -18.5t26 -71l70 -134q31 -60 31 -94q0 -62 -60 -96t-172.5 -34t-179 31t-66.5 80q0 95 124 99q65 2 89.5 14t24.5 37t-12 53l-44 107 q-8 21 -17 27.5t-73 18.5t-156 57q-171 83 -284.5 256t-113.5 384.5z" />
<glyph unicode="&#xc8;" horiz-adv-x="1415" d="M27 1266q0 32 19 57t54 33.5t147 8.5h514q156 0 227.5 6.5t116 19.5t56.5 13q52 0 92 -56q66 -91 66 -220q0 -65 -27.5 -102.5t-68 -37.5t-59 13.5t-56 70.5t-105 79.5t-202 22.5t-159.5 -41q-13 -22 -15.5 -59t-2.5 -189q0 -60 20 -74.5t83.5 -14.5t82.5 17.5t25 69 t13.5 73t28 38.5t55 17t59.5 -34t39.5 -107.5t14.5 -153.5q0 -158 -49 -259q-27 -55 -71.5 -55t-57.5 17.5t-20 72.5q-15 113 -132 113q-45 0 -61.5 -28.5t-16.5 -90.5q0 -166 20 -235q8 -30 49.5 -41.5t165 -11.5t199.5 38.5t124 139.5q28 58 50.5 78t61.5 20t66.5 -36.5 t27.5 -94t-31 -147.5t-65 -142t-49 -63.5t-36 -11.5t-71 9t-157 12h-848q-51 0 -79 22.5t-28 57.5t12 48t48.5 29.5t51 35.5t22.5 56q33 151 33 472q0 403 -70 450q-12 8 -50 19q-57 17 -57 76zM364 1703.5q0 46.5 67.5 77t155 31t133 -16t45.5 -42.5l-15 -44q0 -15 10 -25 t55 -43l20 -16q51 -39 51 -76q0 -74 -103 -74q-182 0 -334 116q-85 66 -85 112.5z" />
<glyph unicode="&#xc9;" horiz-adv-x="1415" d="M27 1266q0 32 19 57t54 33.5t147 8.5h514q156 0 227.5 6.5t116 19.5t56.5 13q52 0 92 -56q66 -91 66 -220q0 -65 -27.5 -102.5t-68 -37.5t-59 13.5t-56 70.5t-105 79.5t-202 22.5t-159.5 -41q-13 -22 -15.5 -59t-2.5 -189q0 -60 20 -74.5t83.5 -14.5t82.5 17.5t25 69 t13.5 73t28 38.5t55 17t59.5 -34t39.5 -107.5t14.5 -153.5q0 -158 -49 -259q-27 -55 -71.5 -55t-57.5 17.5t-20 72.5q-15 113 -132 113q-45 0 -61.5 -28.5t-16.5 -90.5q0 -166 20 -235q8 -30 49.5 -41.5t165 -11.5t199.5 38.5t124 139.5q28 58 50.5 78t61.5 20t66.5 -36.5 t27.5 -94t-31 -147.5t-65 -142t-49 -63.5t-36 -11.5t-71 9t-157 12h-848q-51 0 -79 22.5t-28 57.5t12 48t48.5 29.5t51 35.5t22.5 56q33 151 33 472q0 403 -70 450q-12 8 -50 19q-57 17 -57 76zM494 1549q0 26 10.5 39.5t58 49t57.5 46t10 25.5l-16 44q0 26 45 42 t126.5 16.5t134.5 -19.5q98 -37 96 -92q-2 -45 -85 -109q-151 -116 -334 -116q-103 0 -103 74z" />
<glyph unicode="&#xca;" horiz-adv-x="1415" d="M27 1266q0 32 19 57t54 33.5t147 8.5h514q156 0 227.5 6.5t116 19.5t56.5 13q52 0 92 -56q66 -91 66 -220q0 -65 -27.5 -102.5t-68 -37.5t-59 13.5t-56 70.5t-105 79.5t-202 22.5t-159.5 -41q-13 -22 -15.5 -59t-2.5 -189q0 -60 20 -74.5t83.5 -14.5t82.5 17.5t25 69 t13.5 73t28 38.5t55 17t59.5 -34t39.5 -107.5t14.5 -153.5q0 -158 -49 -259q-27 -55 -71.5 -55t-57.5 17.5t-20 72.5q-15 113 -132 113q-45 0 -61.5 -28.5t-16.5 -90.5q0 -166 20 -235q8 -30 49.5 -41.5t165 -11.5t199.5 38.5t124 139.5q28 58 50.5 78t61.5 20t66.5 -36.5 t27.5 -94t-31 -147.5t-65 -142t-49 -63.5t-36 -11.5t-71 9t-157 12h-848q-51 0 -79 22.5t-28 57.5t12 48t48.5 29.5t51 35.5t22.5 56q33 151 33 472q0 403 -70 450q-12 8 -50 19q-57 17 -57 76zM331 1549.5q0 34.5 33 73t115 100.5q155 117 223 117q33 0 107 -41.5 t148 -99.5t100.5 -90t26.5 -61.5t-22 -52.5t-56 -23t-146.5 53.5t-150 53.5t-57.5 -7.5t-109 -54.5t-129 -47t-61.5 22.5t-21.5 57z" />
<glyph unicode="&#xcb;" horiz-adv-x="1415" d="M27 1266q0 32 19 57t54 33.5t147 8.5h514q156 0 227.5 6.5t116 19.5t56.5 13q52 0 92 -56q66 -91 66 -220q0 -65 -27.5 -102.5t-68 -37.5t-59 13.5t-56 70.5t-105 79.5t-202 22.5t-159.5 -41q-13 -22 -15.5 -59t-2.5 -189q0 -60 20 -74.5t83.5 -14.5t82.5 17.5t25 69 t13.5 73t28 38.5t55 17t59.5 -34t39.5 -107.5t14.5 -153.5q0 -158 -49 -259q-27 -55 -71.5 -55t-57.5 17.5t-20 72.5q-15 113 -132 113q-45 0 -61.5 -28.5t-16.5 -90.5q0 -166 20 -235q8 -30 49.5 -41.5t165 -11.5t199.5 38.5t124 139.5q28 58 50.5 78t61.5 20t66.5 -36.5 t27.5 -94t-31 -147.5t-65 -142t-49 -63.5t-36 -11.5t-71 9t-157 12h-848q-51 0 -79 22.5t-28 57.5t12 48t48.5 29.5t51 35.5t22.5 56q33 151 33 472q0 403 -70 450q-12 8 -50 19q-57 17 -57 76zM196 1636q0 68 63 116q97 75 235 74q65 -1 108 -37t43 -108.5t-72 -119.5 q-102 -66 -225 -66q-68 0 -110 36.5t-42 104.5zM769 1650q0 68 63 116q97 75 235 74q65 -1 108 -36.5t43 -109t-72 -119.5q-103 -66 -225 -66q-68 0 -110 36.5t-42 104.5z" />
<glyph unicode="&#xcc;" horiz-adv-x="847" d="M27 1254.5q0 35.5 41.5 61t156.5 48t243 22.5q351 0 351 -135q0 -29 -13.5 -43.5t-64 -40t-65 -103.5t-14.5 -382t13 -364t27.5 -75.5t50.5 -33.5q66 -30 66 -87q0 -142 -445 -142q-326 0 -326 124q0 45 56.5 79.5t65.5 86.5q19 114 19 427t-26 385q-14 41 -61 71t-61 48 t-14 53.5zM94 1703.5q0 46.5 67.5 77t155 31t133 -16t45.5 -42.5l-15 -44q0 -15 10 -25t55 -43l20 -16q51 -39 51 -76q0 -74 -103 -74q-182 0 -334 116q-85 66 -85 112.5z" />
<glyph unicode="&#xcd;" horiz-adv-x="847" d="M27 1254.5q0 35.5 41.5 61t156.5 48t243 22.5q351 0 351 -135q0 -29 -13.5 -43.5t-64 -40t-65 -103.5t-14.5 -382t13 -364t27.5 -75.5t50.5 -33.5q66 -30 66 -87q0 -142 -445 -142q-326 0 -326 124q0 45 56.5 79.5t65.5 86.5q19 114 19 427t-26 385q-14 41 -61 71t-61 48 t-14 53.5zM251 1549q0 26 10.5 39.5t58 49t57.5 46t10 25.5l-16 44q0 26 45 42t126.5 16.5t134.5 -19.5q98 -37 96 -92q-2 -45 -85 -109q-151 -116 -334 -116q-103 0 -103 74z" />
<glyph unicode="&#xce;" horiz-adv-x="847" d="M27 1254.5q0 35.5 41.5 61t156.5 48t243 22.5q351 0 351 -135q0 -29 -13.5 -43.5t-64 -40t-65 -103.5t-14.5 -382t13 -364t27.5 -75.5t50.5 -33.5q66 -30 66 -87q0 -142 -445 -142q-326 0 -326 124q0 45 56.5 79.5t65.5 86.5q19 114 19 427t-26 385q-14 41 -61 71t-61 48 t-14 53.5zM47 1549.5q0 34.5 33 73t115 100.5q155 117 223 117q33 0 107 -41.5t148 -99.5t100.5 -90t26.5 -61.5t-22 -52.5t-56 -23t-146.5 53.5t-150 53.5t-57.5 -7.5t-109 -54.5t-129 -47t-61.5 22.5t-21.5 57z" />
<glyph unicode="&#xcf;" horiz-adv-x="847" d="M-60 1636q0 68 63 116q97 75 235 74q65 -1 108 -37t43 -108.5t-72 -119.5q-102 -66 -225 -66q-68 0 -110 36.5t-42 104.5zM28 1254.5q0 35.5 41.5 61t156.5 48t243 22.5q351 0 351 -135q0 -29 -13.5 -43.5t-64 -40t-65 -103.5t-14.5 -382t13 -364t27.5 -75.5t50.5 -33.5 q66 -30 66 -87q0 -142 -445 -142q-326 0 -326 124q0 45 56.5 79.5t65.5 86.5q19 114 19 427t-26 385q-14 41 -61 71t-61 48t-14 53.5zM458 1650q0 68 63 116q97 75 235 74q65 -1 108 -37t43 -108.5t-72 -119.5q-103 -66 -225 -66q-68 0 -110 36.5t-42 104.5z" />
<glyph unicode="&#xd0;" horiz-adv-x="1643" d="M26 94.5q0 42.5 18.5 62.5t60 30.5t55.5 33t19 67t11 156t6 134.5t-7 29.5t-29 6.5h-65q-39 0 -53.5 16t-14.5 58t16 60t54 18h68q22 0 29 5t6 22l-1 21q-1 18 1.5 71t2.5 141.5t-13 116.5t-61 45q-69 26 -69 82q0 111 180 111l188 -4l412 11q235 0 368 -52 q198 -78 298 -262q89 -162 89 -396t-119 -407.5t-323 -241.5q-120 -40 -256 -40l-121 4l-104 3q-121 4 -213 4h-72l-209 -10q-68 0 -110 31t-42 73.5zM669 310q0 -62 27 -89t90 -27q292 0 292 444q0 246 -68 380q-75 149 -254 149q-48 0 -67.5 -19t-19.5 -64v-276 q0 -26 7 -34t32 -8h126q37 0 52.5 -17.5t15.5 -57.5q0 -73 -65 -75l-120 -3l-21 3q-27 0 -27 -59v-247z" />
<glyph unicode="&#xd1;" horiz-adv-x="1700" d="M26 1257q0 96 165 121q56 8 166 8t146.5 -12.5t86.5 -56.5l498 -436q70 -61 101 -61q52 0 52 118.5t-15 164.5t-58.5 67t-59.5 42.5t-16 55.5q0 84 115 108q47 10 181 10t192 -18q92 -28 92 -99.5t-75 -104.5q-30 -13 -41 -23q-46 -42 -47 -280v-326q0 -75 1 -228 t-21 -231q-27 -97 -98 -97q-31 0 -53.5 13t-74.5 60l-593 531q-62 56 -103 56q-61 0 -61 -154t15.5 -205t63.5 -75q67 -33 67 -86q0 -139 -299 -139q-135 0 -209.5 35.5t-74.5 100.5q0 34 14 51t62 45.5t58 99.5q17 129 17 379q0 360 -58 432q-17 21 -59 41.5t-59.5 41.5 t-17.5 51zM470 1641.5q0 82.5 47 129.5t130 51q37 2 72.5 -8t119.5 -46q94 -41 129 -54t46 -13q25 0 28 26v33q0 26 28.5 45.5t78 19.5t84.5 -38t35 -110.5t-54.5 -133t-127.5 -60.5q-43 0 -124 27t-150.5 64t-90.5 37t-32 -6.5t-11 -13.5l2 -51q0 -18 -29 -33.5t-65 -15.5 t-76 34t-40 116.5z" />
<glyph unicode="&#xd2;" horiz-adv-x="1594" d="M48 699.5q0 221.5 127.5 393.5t330.5 248q136 52 302 52q257 0 449 -147q130 -101 210 -261.5t80 -320.5q0 -236 -156 -422q-132 -158 -345 -227q-131 -42 -283.5 -42t-327 79.5t-281 252.5t-106.5 394.5zM434 1703.5q0 46.5 67.5 77t155 31t133 -16t45.5 -42.5l-15 -44 q0 -15 10 -25t55 -43l20 -16q51 -39 51 -76q0 -74 -103 -74q-182 0 -334 116q-85 66 -85 112.5zM542 880q0 -95 46 -243.5t116 -263.5q31 -49 76.5 -78t107 -29t108 57t46.5 164t-39 247t-89 220q-92 148 -201 152q-84 0 -133 -75q-38 -56 -38 -151z" />
<glyph unicode="&#xd3;" horiz-adv-x="1594" d="M48 699.5q0 221.5 127.5 393.5t330.5 248q136 52 302 52q257 0 449 -147q130 -101 210 -261.5t80 -320.5q0 -236 -156 -422q-132 -158 -345 -227q-131 -42 -283.5 -42t-327 79.5t-281 252.5t-106.5 394.5zM542 880q0 -95 46 -243.5t116 -263.5q31 -49 76.5 -78t107 -29 t108 57t46.5 164t-39 247t-89 220q-92 148 -201 152q-84 0 -133 -75q-38 -56 -38 -151zM605 1549q0 26 10.5 39.5t58 49t57.5 46t10 25.5l-16 44q0 26 45 42t126.5 16.5t134.5 -19.5q98 -37 96 -92q-2 -45 -85 -109q-151 -116 -334 -116q-103 0 -103 74z" />
<glyph unicode="&#xd4;" horiz-adv-x="1594" d="M48 699.5q0 221.5 127.5 393.5t330.5 248q136 52 302 52q257 0 449 -147q130 -101 210 -261.5t80 -320.5q0 -236 -156 -422q-132 -158 -345 -227q-131 -42 -283.5 -42t-327 79.5t-281 252.5t-106.5 394.5zM421 1549.5q0 34.5 33 73t115 100.5q155 117 223 117 q33 0 107 -41.5t148 -99.5t100.5 -90t26.5 -61.5t-22 -52.5t-56 -23t-146.5 53.5t-150 53.5t-57.5 -7.5t-109 -54.5t-129 -47t-61.5 22.5t-21.5 57zM542 880q0 -95 46 -243.5t116 -263.5q31 -49 76.5 -78t107 -29t108 57t46.5 164t-39 247t-89 220q-92 148 -201 152 q-84 0 -133 -75q-38 -56 -38 -151z" />
<glyph unicode="&#xd5;" horiz-adv-x="1594" d="M48 699.5q0 221.5 127.5 393.5t330.5 248q136 52 302 52q257 0 449 -147q130 -101 210 -261.5t80 -320.5q0 -236 -156 -422q-132 -158 -345 -227q-131 -42 -283.5 -42t-327 79.5t-281 252.5t-106.5 394.5zM411 1641.5q0 82.5 47 129.5t130 51q37 2 72.5 -8t119.5 -46 q94 -41 129 -54t46 -13q25 0 28 26v33q0 26 28.5 45.5t78 19.5t84.5 -38t35 -110.5t-54.5 -133t-127.5 -60.5q-43 0 -124 27t-150.5 64t-90.5 37t-32 -6.5t-11 -13.5l2 -51q0 -18 -29 -33.5t-65 -15.5t-76 34t-40 116.5zM542 880q0 -95 46 -243.5t116 -263.5 q31 -49 76.5 -78t107 -29t108 57t46.5 164t-39 247t-89 220q-92 148 -201 152q-84 0 -133 -75q-38 -56 -38 -151z" />
<glyph unicode="&#xd6;" horiz-adv-x="1594" d="M48 699.5q0 221.5 127.5 393.5t330.5 248q136 52 302 52q257 0 449 -147q130 -101 210 -261.5t80 -320.5q0 -236 -156 -422q-132 -158 -345 -227q-131 -42 -283.5 -42t-327 79.5t-281 252.5t-106.5 394.5zM286 1636q0 68 63 116q97 75 235 74q65 -1 108 -37t43 -108.5 t-72 -119.5q-102 -66 -225 -66q-68 0 -110 36.5t-42 104.5zM542 880q0 -95 46 -243.5t116 -263.5q31 -49 76.5 -78t107 -29t108 57t46.5 164t-39 247t-89 220q-92 148 -201 152q-84 0 -133 -75q-38 -56 -38 -151zM859 1650q0 68 63 116q97 75 235 74q65 -1 108 -36.5 t43 -109t-72 -119.5q-103 -66 -225 -66q-68 0 -110 36.5t-42 104.5z" />
<glyph unicode="&#xd7;" d="M198 322q0 22 41.5 57.5t134.5 127.5l38 38q18 18 18 39t-18 39l-38 38q-91 90 -133.5 126.5t-42.5 59t34 43t91.5 43.5t83.5 23t71 -56q105 -130 138 -130q21 0 39 18l36 36q43 45 77.5 91t67 46t141.5 -58q57 -30 57 -59q0 -19 -23.5 -37t-76.5 -71l-113 -113 q-18 -18 -18 -39t18 -39l113 -112q53 -53 76.5 -71.5t23.5 -37.5q0 -29 -57 -59q-109 -58 -140.5 -58t-42.5 14t-37.5 49t-65.5 74l-36 36q-18 18 -38.5 18t-50.5 -30q-42 -43 -87.5 -99.5t-72 -56.5t-90 26t-91 44t-27.5 40z" />
<glyph unicode="&#xd8;" horiz-adv-x="1593" d="M48 690q0 237 139 424q117 158 320 229q140 49 308 49t329 -80q88 -44 116.5 -72t35.5 -28t16 7l117 100q12 10 32 10t37 -20l15 -18q14 -18 14 -37t-19 -36l-109 -92q-11 -9 -11 -14t14 -23q67 -88 105.5 -199.5t38.5 -221.5q0 -244 -156 -429q-132 -157 -345 -225 q-128 -42 -284.5 -42t-324.5 84q-90 45 -119 72.5t-34 27.5t-15 -9l-106 -88q-20 -16 -36 -16t-31 16l-22 24q-12 13 -12 32t21 36l100 87q10 9 10 13.5t-13 21.5q-131 180 -131 417zM544 903.5q0 -84.5 17.5 -157.5t18.5 -76q9 -55 28 -55q8 0 33 22l258 223q34 30 34 51 t-46 84q-81 111 -177 111q-70 0 -118 -59t-48 -143.5zM658 463q0 -20 48 -92q69 -103 157.5 -103t133 55.5t44.5 148.5t-30 232q-12 53 -27 53q-9 0 -35 -22l-257 -222q-34 -30 -34 -50z" />
<glyph unicode="&#xd9;" horiz-adv-x="1679" d="M26 1246q0 46 34 76q70 63 348 63q165 0 273 -24.5t108 -109.5q0 -42 -31 -67q-7 -6 -49.5 -25.5t-54 -56.5t-11.5 -123t-8 -375q-5 -172 93 -262q80 -74 206 -74q80 0 145 29.5t95.5 74.5t40.5 93t10 131v220q-5 253 -14.5 296.5t-63 67.5t-72.5 43t-19 47 q0 60 71.5 87.5t228 27.5t226 -27t69.5 -86q0 -29 -12 -43t-64 -43.5t-59.5 -64t-9.5 -256.5v-244q0 -221 -33 -313q-71 -194 -312 -281q-146 -54 -330 -54q-321 0 -514 153q-94 75 -130 174t-36 286l8 396q0 83 -12.5 115t-54.5 60q-66 43 -66 89zM523 1703.5 q0 46.5 67.5 77t155 31t133 -16t45.5 -42.5l-15 -44q0 -15 10 -25t55 -43l20 -16q51 -39 51 -76q0 -74 -103 -74q-182 0 -334 116q-85 66 -85 112.5z" />
<glyph unicode="&#xda;" horiz-adv-x="1679" d="M26 1246q0 46 34 76q70 63 348 63q165 0 273 -24.5t108 -109.5q0 -42 -31 -67q-7 -6 -49.5 -25.5t-54 -56.5t-11.5 -123t-8 -375q-5 -172 93 -262q80 -74 206 -74q80 0 145 29.5t95.5 74.5t40.5 93t10 131v220q-5 253 -14.5 296.5t-63 67.5t-72.5 43t-19 47 q0 60 71.5 87.5t228 27.5t226 -27t69.5 -86q0 -29 -12 -43t-64 -43.5t-59.5 -64t-9.5 -256.5v-244q0 -221 -33 -313q-71 -194 -312 -281q-146 -54 -330 -54q-321 0 -514 153q-94 75 -130 174t-36 286l8 396q0 83 -12.5 115t-54.5 60q-66 43 -66 89zM687 1549q0 26 10.5 39.5 t58 49t57.5 46t10 25.5l-16 44q0 26 45 42t126.5 16.5t134.5 -19.5q98 -37 96 -92q-2 -45 -85 -109q-151 -116 -334 -116q-103 0 -103 74z" />
<glyph unicode="&#xdb;" horiz-adv-x="1679" d="M26 1246q0 46 34 76q70 63 348 63q165 0 273 -24.5t108 -109.5q0 -42 -31 -67q-7 -6 -49.5 -25.5t-54 -56.5t-11.5 -123t-8 -375q-5 -172 93 -262q80 -74 206 -74q80 0 145 29.5t95.5 74.5t40.5 93t10 131v220q-5 253 -14.5 296.5t-63 67.5t-72.5 43t-19 47 q0 60 71.5 87.5t228 27.5t226 -27t69.5 -86q0 -29 -12 -43t-64 -43.5t-59.5 -64t-9.5 -256.5v-244q0 -221 -33 -313q-71 -194 -312 -281q-146 -54 -330 -54q-321 0 -514 153q-94 75 -130 174t-36 286l8 396q0 83 -12.5 115t-54.5 60q-66 43 -66 89zM504 1549.5q0 34.5 33 73 t115 100.5q155 117 223 117q33 0 107 -41.5t148 -99.5t100.5 -90t26.5 -61.5t-22 -52.5t-56 -23t-146.5 53.5t-150 53.5t-57.5 -7.5t-109 -54.5t-129 -47t-61.5 22.5t-21.5 57z" />
<glyph unicode="&#xdc;" horiz-adv-x="1679" d="M26 1246q0 46 34 76q70 63 348 63q165 0 273 -24.5t108 -109.5q0 -42 -31 -67q-7 -6 -49.5 -25.5t-54 -56.5t-11.5 -123t-8 -375q-5 -172 93 -262q80 -74 206 -74q80 0 145 29.5t95.5 74.5t40.5 93t10 131v220q-5 253 -14.5 296.5t-63 67.5t-72.5 43t-19 47 q0 60 71.5 87.5t228 27.5t226 -27t69.5 -86q0 -29 -12 -43t-64 -43.5t-59.5 -64t-9.5 -256.5v-244q0 -221 -33 -313q-71 -194 -312 -281q-146 -54 -330 -54q-321 0 -514 153q-94 75 -130 174t-36 286l8 396q0 83 -12.5 115t-54.5 60q-66 43 -66 89zM382 1636q0 68 63 116 q97 75 235 74q65 -1 108 -37t43 -108.5t-72 -119.5q-102 -66 -225 -66q-68 0 -110 36.5t-42 104.5zM955 1650q0 68 63 116q97 75 235 74q65 -1 108 -36.5t43 -109t-72 -119.5q-103 -66 -225 -66q-68 0 -110 36.5t-42 104.5z" />
<glyph unicode="&#xdd;" horiz-adv-x="1597" d="M0 1260q0 67 101 96.5t317.5 29.5t291.5 -15q132 -26 132 -102q0 -26 -27 -60t-27 -61t47 -92t74 -65t47 15.5t55.5 60t35.5 68t-4.5 32.5t-28.5 37.5t-24 67.5q0 113 306 113q173 0 215.5 -13t64 -41t21.5 -64.5t-25 -57.5t-84.5 -32t-101.5 -43.5t-166 -166 t-157.5 -203t-33.5 -196.5t7 -207t21 -103.5t58 -46.5q73 -38 73 -95q0 -136 -402 -136q-165 0 -300.5 29.5t-135.5 109.5q0 62 76 89q57 20 71 51q32 69 32 326q0 80 -16 124.5t-99.5 153.5t-203.5 227q-52 51 -110 72.5t-79 39.5t-21 58zM653 1549q0 26 10.5 39.5t58 49 t57.5 46t10 25.5l-16 44q0 26 45 42t126.5 16.5t134.5 -19.5q98 -37 96 -92q-2 -45 -85 -109q-151 -116 -334 -116q-103 0 -103 74z" />
<glyph unicode="&#xde;" horiz-adv-x="1401" d="M27 1261q0 44 38 68.5t107 24.5l267 -4q58 0 110.5 2.5t72.5 2.5q40 0 40 -42l-6 -134q0 -62 23 -62q8 0 67.5 14t116.5 14q158 0 287 -64q223 -110 223 -351q0 -194 -152 -307.5t-359 -113.5l-182 10q-29 0 -29 -34.5t13 -49.5t76.5 -49t63.5 -75q0 -63 -95.5 -97 t-272.5 -34q-370 0 -370 127q0 30 16 46t75 46q36 19 42 53t8 219v526q0 102 -14 129.5t-76 44.5q-90 26 -90 90zM658 593q0 -25 3 -33t22.5 -18t75.5 -10t100 34q65 49 65 163.5t-76 168.5q-48 33 -119 33t-71 -39v-299z" />
<glyph unicode="&#xdf;" horiz-adv-x="1322" d="M20 100q0 29 11 43t64 53q50 49 47 169v378q0 428 340 553q124 45 266.5 45t231.5 -70t89 -183q0 -39 -9 -62t-29.5 -54.5t-20.5 -45.5q0 -37 98.5 -181.5t142 -246t43.5 -209.5q0 -159 -102 -234t-228 -75q-164 0 -228 129q-15 29 -15 47t40 34q76 30 76 110 q0 70 -83.5 207t-102 177t-18.5 98.5t30 103t123 122.5q39 32 39 64t-23.5 50.5t-61.5 18.5q-191 0 -191 -415q0 -111 15 -375q4 -61 15.5 -93.5t44 -64t39.5 -42t7 -32.5q0 -67 -95.5 -103.5t-270.5 -36.5q-284 0 -284 121z" />
<glyph unicode="&#xe0;" horiz-adv-x="1161" d="M27 250q0 104 84 184q131 126 392 127q58 0 73 11.5t15 85.5q0 169 -94 169q-30 0 -53.5 -18t-58.5 -66q-89 -127 -186 -127q-49 0 -80 29t-31 76.5t38.5 95.5t104.5 84q181 96 366.5 96t306.5 -88q64 -47 89.5 -107.5t25.5 -166.5l-2 -149q0 -155 16.5 -189t26.5 -40 t42 -11t32 -47.5t-38.5 -94.5t-106.5 -91.5t-161.5 -39.5t-154.5 72q-21 26 -40 26t-52 -25q-100 -73 -229 -73t-196 47q-129 89 -129 230zM237 1321q0 47 68 78t155 31t132.5 -16.5t45.5 -42.5l-15 -45q0 -14 10 -24.5t57.5 -46t58 -49t10.5 -40.5q0 -74 -103 -74 q-183 0 -334 117q-85 65 -85 112zM433 297q0 -49 23 -78.5t61 -29.5q80 0 80 135q0 55 -11.5 74t-49.5 19.5t-70.5 -35.5t-32.5 -85z" />
<glyph unicode="&#xe1;" horiz-adv-x="1161" d="M27 250q0 104 84 184q131 126 392 127q58 0 73 11.5t15 85.5q0 169 -94 169q-30 0 -53.5 -18t-58.5 -66q-89 -127 -186 -127q-49 0 -80 29t-31 76.5t38.5 95.5t104.5 84q181 96 366.5 96t306.5 -88q64 -47 89.5 -107.5t25.5 -166.5l-2 -149q0 -155 16.5 -189t26.5 -40 t42 -11t32 -47.5t-38.5 -94.5t-106.5 -91.5t-161.5 -39.5t-154.5 72q-21 26 -40 26t-52 -25q-100 -73 -229 -73t-196 47q-129 89 -129 230zM387 1166q0 27 10.5 40.5t58 49t57.5 46t10 24.5l-16 45q0 25 45 41.5t126.5 17t134.5 -19.5q184 -70 11 -201q-151 -117 -334 -117 q-103 0 -103 74zM433 297q0 -49 23 -78.5t61 -29.5q80 0 80 135q0 55 -11.5 74t-49.5 19.5t-70.5 -35.5t-32.5 -85z" />
<glyph unicode="&#xe2;" horiz-adv-x="1161" d="M27 250q0 104 84 184q131 126 392 127q58 0 73 11.5t15 85.5q0 169 -94 169q-30 0 -53.5 -18t-58.5 -66q-89 -127 -186 -127q-49 0 -80 29t-31 76.5t38.5 95.5t104.5 84q181 96 366.5 96t306.5 -88q64 -47 89.5 -107.5t25.5 -166.5l-2 -149q0 -155 16.5 -189t26.5 -40 t42 -11t32 -47.5t-38.5 -94.5t-106.5 -91.5t-161.5 -39.5t-154.5 72q-21 26 -40 26t-52 -25q-100 -73 -229 -73t-196 47q-129 89 -129 230zM204 1171.5q0 34.5 33 73t115 100.5q155 117 223 117q33 0 107 -41.5t148 -99.5t100.5 -90t26.5 -61.5t-22 -52.5t-57 -23t-116 39 q-150 72 -186 72t-142 -56.5t-146.5 -56.5t-62 22.5t-21.5 57zM433 297q0 -49 23 -78.5t61 -29.5q80 0 80 135q0 55 -11.5 74t-49.5 19.5t-70.5 -35.5t-32.5 -85z" />
<glyph unicode="&#xe3;" horiz-adv-x="1161" d="M27 250q0 104 84 184q131 126 392 127q58 0 73 11.5t15 85.5q0 169 -94 169q-30 0 -53.5 -18t-58.5 -66q-89 -127 -186 -127q-49 0 -80 29t-31 76.5t38.5 95.5t104.5 84q181 96 366.5 96t306.5 -88q64 -47 89.5 -107.5t25.5 -166.5l-2 -149q0 -155 16.5 -189t26.5 -40 t42 -11t32 -47.5t-38.5 -94.5t-106.5 -91.5t-161.5 -39.5t-154.5 72q-21 26 -40 26t-52 -25q-100 -73 -229 -73t-196 47q-129 89 -129 230zM184 1221.5q0 55.5 24 102.5q51 96 169 96q53 0 96 -14.5t129.5 -58t117.5 -43.5q25 0 30.5 37.5t8.5 45.5t23.5 24t64.5 16 q130 0 130 -132q0 -86 -50.5 -138.5t-133.5 -52.5q-73 0 -148 34.5t-132.5 58.5t-68.5 29.5t-25 5.5q-23 0 -23 -26v-27q0 -36 -27 -57.5t-74 -21.5t-79 33t-32 88.5zM433 297q0 -49 23 -78.5t61 -29.5q80 0 80 135q0 55 -11.5 74t-49.5 19.5t-70.5 -35.5t-32.5 -85z" />
<glyph unicode="&#xe4;" horiz-adv-x="1161" d="M27 250q0 104 84 184q131 126 392 127q58 0 73 11.5t15 85.5q0 169 -94 169q-30 0 -53.5 -18t-58.5 -66q-89 -127 -186 -127q-49 0 -80 29t-31 76.5t38.5 95.5t104.5 84q181 96 366.5 96t306.5 -88q64 -47 89.5 -107.5t25.5 -166.5l-2 -149q0 -155 16.5 -189t26.5 -40 t42 -11t32 -47.5t-38.5 -94.5t-106.5 -91.5t-161.5 -39.5t-154.5 72q-21 26 -40 26t-52 -25q-100 -73 -229 -73t-196 47q-129 89 -129 230zM119 1267q0 73 64 120.5t159 47.5t139.5 -36.5t44.5 -110t-77 -123t-162 -49.5t-126.5 39t-41.5 112zM433 297q0 -49 23 -78.5 t61 -29.5q80 0 80 135q0 55 -11.5 74t-49.5 19.5t-70.5 -35.5t-32.5 -85zM635 1264q0 73 63.5 120.5t158.5 47.5t140 -36.5t45 -110t-77 -123t-162 -49.5t-126.5 39t-41.5 112z" />
<glyph unicode="&#xe5;" horiz-adv-x="1161" d="M27 250q0 104 84 184q131 126 392 127q58 0 73 11.5t15 85.5q0 169 -94 169q-30 0 -53.5 -18t-58.5 -66q-89 -127 -186 -127q-49 0 -80 29t-31 76.5t38.5 95.5t104.5 84q181 96 366.5 96t306.5 -88q64 -47 89.5 -107.5t25.5 -166.5l-2 -149q0 -155 16.5 -189t26.5 -40 t42 -11t32 -47.5t-38.5 -94.5t-106.5 -91.5t-161.5 -39.5t-154.5 72q-21 26 -40 26t-52 -25q-100 -73 -229 -73t-196 47q-129 89 -129 230zM281 1292q0 98 78 152t216 54q219 0 281 -111q23 -41 23 -87q0 -100 -77.5 -154t-219.5 -54q-301 0 -301 200zM433 297 q0 -49 23 -78.5t61 -29.5q80 0 80 135q0 55 -11.5 74t-49.5 19.5t-70.5 -35.5t-32.5 -85zM481 1293.5q0 -51.5 26.5 -82t70.5 -30.5t71.5 32t27.5 84q0 107 -98 109q-46 0 -72 -30.5t-26 -82z" />
<glyph unicode="&#xe6;" horiz-adv-x="1637" d="M27 239q0 181 184 269q67 32 129 44t188 17q34 1 43 15t9 82.5t-25.5 118t-62.5 49.5t-63.5 -21.5t-67.5 -80.5q-80 -117 -171 -117q-49 0 -81.5 29.5t-32.5 83t59 111t186 108t272 50.5q133 0 233 -44q21 -10 28 -10t40 14t105.5 26.5t136.5 12.5q168 0 293 -85 q85 -57 133 -138t48 -159t-21 -106t-38 -34t-55 -6h-447q-21 0 -27.5 -5.5t-6.5 -22.5q0 -53 48 -107q72 -80 174 -80q50 0 112.5 20.5t99.5 47.5t56.5 27t46.5 -37.5t27 -73.5t-33.5 -80t-91.5 -82q-158 -102 -341 -102q-85 0 -173 28t-127 59t-48 31t-64 -28.5t-166 -59 t-186 -30.5q-141 0 -231.5 68.5t-90.5 197.5zM431 307q0 -48 24 -80t59 -32q79 0 79 127q0 63 -10.5 83t-49.5 20.5t-70.5 -35t-31.5 -83.5zM1004 710.5q0 -38.5 11.5 -48t46.5 -9.5h125q28 0 38.5 10.5t10.5 52.5t-31 76.5t-82 34.5t-85 -39t-34 -77.5z" />
<glyph unicode="&#xe7;" horiz-adv-x="1078" d="M34 475q0 225 169.5 373t405.5 148q179 0 310.5 -88t131.5 -216q0 -85 -59.5 -136.5t-129.5 -51.5t-105 33t-62 120.5t-102 87.5q-56 0 -94.5 -49t-38.5 -121q0 -119 78.5 -202t188.5 -83q47 0 77 8t67 25.5t63.5 17.5t52.5 -31.5t26 -74.5q0 -98 -136 -183 q-103 -65 -228 -78q-14 -1 -14 -9.5t12 -19.5l89 -81q61 -56 61 -103t-60.5 -81t-149.5 -34t-132.5 32t-43.5 64q0 65 104 80q28 4 28 20.5t-20 42.5l-53 72q-18 23 -52 30.5t-75 26.5q-110 49 -195 147q-114 131 -114 314z" />
<glyph unicode="&#xe8;" horiz-adv-x="1086" d="M34 478q0 168 95 293t214 175t238 50q190 0 323 -108q67 -54 111 -133t44 -151.5t-27 -114t-70 -41.5h-470q-31 0 -31 -27q0 -65 70.5 -122.5t134.5 -57.5q130 0 220 64q34 24 57 24t48 -32t25 -66q0 -72 -90 -139q-159 -119 -368 -119t-351 122q-69 60 -121 159t-52 224 zM227 1321q0 47 68 78t155 31t132.5 -16.5t45.5 -42.5l-15 -45q0 -14 10 -24.5t57.5 -46t58 -49t10.5 -40.5q0 -74 -103 -74q-183 0 -334 117q-85 65 -85 112zM453 695q0 -36 14.5 -48t50.5 -12h101q64 0 64 56.5t-31 90.5t-84 34t-84 -42.5t-31 -78.5z" />
<glyph unicode="&#xe9;" horiz-adv-x="1086" d="M34 478q0 168 95 293t214 175t238 50q190 0 323 -108q67 -54 111 -133t44 -151.5t-27 -114t-70 -41.5h-470q-31 0 -31 -27q0 -65 70.5 -122.5t134.5 -57.5q130 0 220 64q34 24 57 24t48 -32t25 -66q0 -72 -90 -139q-159 -119 -368 -119t-351 122q-69 60 -121 159t-52 224 zM391 1166q0 27 10.5 40.5t58 49t57.5 46t10 24.5l-16 45q0 25 45 41.5t126.5 17t134.5 -19.5q184 -70 11 -201q-151 -117 -334 -117q-103 0 -103 74zM453 695q0 -36 14.5 -48t50.5 -12h101q64 0 64 56.5t-31 90.5t-84 34t-84 -42.5t-31 -78.5z" />
<glyph unicode="&#xea;" horiz-adv-x="1086" d="M34 478q0 168 95 293t214 175t238 50q190 0 323 -108q67 -54 111 -133t44 -151.5t-27 -114t-70 -41.5h-470q-31 0 -31 -27q0 -65 70.5 -122.5t134.5 -57.5q130 0 220 64q34 24 57 24t48 -32t25 -66q0 -72 -90 -139q-159 -119 -368 -119t-351 122q-69 60 -121 159t-52 224 zM221 1171.5q0 34.5 33 73t115 100.5q155 117 223 117q33 0 107 -41.5t148 -99.5t100.5 -90t26.5 -61.5t-22 -52.5t-57 -23t-116 39q-150 72 -186 72t-142 -56.5t-146.5 -56.5t-62 22.5t-21.5 57zM453 695q0 -36 14.5 -48t50.5 -12h101q64 0 64 56.5t-31 90.5t-84 34 t-84 -42.5t-31 -78.5z" />
<glyph unicode="&#xeb;" horiz-adv-x="1086" d="M34 478q0 168 95 293t214 175t238 50q190 0 323 -108q67 -54 111 -133t44 -151.5t-27 -114t-70 -41.5h-470q-31 0 -31 -27q0 -65 70.5 -122.5t134.5 -57.5q130 0 220 64q34 24 57 24t48 -32t25 -66q0 -72 -90 -139q-159 -119 -368 -119t-351 122q-69 60 -121 159t-52 224 zM143 1267q0 73 64 120.5t159 47.5t139.5 -36.5t44.5 -110t-77 -123t-162 -49.5t-126.5 39t-41.5 112zM453 695q0 -36 14.5 -48t50.5 -12h101q64 0 64 56.5t-31 90.5t-84 34t-84 -42.5t-31 -78.5zM659 1264q0 73 63.5 120.5t158.5 47.5t140 -36.5t45 -110t-77 -123 t-162 -49.5t-126.5 39t-41.5 112z" />
<glyph unicode="&#xec;" horiz-adv-x="730" d="M15 1321q0 47 68 78t155 31t132.5 -16.5t45.5 -42.5l-15 -45q0 -14 10 -24.5t57.5 -46t58 -49t10.5 -40.5q0 -74 -103 -74q-183 0 -334 117q-85 65 -85 112zM20 797q0 58 81 89q112 43 240 73t190.5 30t62.5 -62v-581q0 -69 12.5 -101t47 -56.5t45 -40t10.5 -39.5 q0 -129 -327 -129q-176 0 -279 28q-35 10 -56.5 35t-21.5 54.5t11 44.5t49 43t51 80t13 120q0 181 -11 264q-6 41 -62 65.5t-56 82.5z" />
<glyph unicode="&#xed;" horiz-adv-x="730" d="M20 797q0 58 81 89q112 43 240 73t190.5 30t62.5 -62v-581q0 -69 12.5 -101t47 -56.5t45 -40t10.5 -39.5q0 -129 -327 -129q-176 0 -279 28q-35 10 -56.5 35t-21.5 54.5t11 44.5t49 43t51 80t13 120q0 181 -11 264q-6 41 -62 65.5t-56 82.5zM165 1166q0 27 10.5 40.5 t58 49t57.5 46t10 24.5l-16 45q0 25 45 41.5t126.5 17t134.5 -19.5q184 -70 11 -201q-151 -117 -334 -117q-103 0 -103 74z" />
<glyph unicode="&#xee;" horiz-adv-x="730" d="M-12 1171.5q0 34.5 33 73t115 100.5q155 117 223 117q33 0 107 -41.5t148 -99.5t100.5 -90t26.5 -61.5t-22 -52.5t-57 -23t-116 39q-150 72 -186 72t-142 -56.5t-146.5 -56.5t-62 22.5t-21.5 57zM20 797q0 58 81 89q112 43 240 73t190.5 30t62.5 -62v-581 q0 -69 12.5 -101t47 -56.5t45 -40t10.5 -39.5q0 -129 -327 -129q-176 0 -279 28q-35 10 -56.5 35t-21.5 54.5t11 44.5t49 43t51 80t13 120q0 181 -11 264q-6 41 -62 65.5t-56 82.5z" />
<glyph unicode="&#xef;" horiz-adv-x="730" d="M-76 1267q0 73 64 120.5t159 47.5t139.5 -36.5t44.5 -110t-77 -123t-162 -49.5t-126.5 39t-41.5 112zM20 797q0 58 81 89q112 43 240 73t190.5 30t62.5 -62v-581q0 -69 12.5 -101t47 -56.5t45 -40t10.5 -39.5q0 -129 -327 -129q-176 0 -279 28q-35 10 -56.5 35 t-21.5 54.5t11 44.5t49 43t51 80t13 120q0 181 -11 264q-6 41 -62 65.5t-56 82.5zM399 1264q0 73 63.5 120.5t158.5 47.5t140 -36.5t45 -110t-77 -123t-162 -49.5t-126.5 39t-41.5 112z" />
<glyph unicode="&#xf0;" horiz-adv-x="1233" d="M34 439q0 198 117.5 341t313.5 191q39 10 50 18t11 27t-27.5 51t-39.5 32t-42 -23l-44 -35q-57 -38 -79 -38t-42.5 21.5t-20.5 45.5q0 43 80 99l26 18q15 10 15 20q-1 11 -66 59t-65 78.5t21 46t52 15.5q81 0 200 -63q14 -7 24 -7q8 0 67 44l39 31q54 42 80.5 42 t48.5 -25.5t22 -47t-3 -26.5q-4 -6 -57 -47l-30 -20q-22 -15 -22 -31.5t24 -32.5q95 -61 210 -173q302 -294 302 -566q0 -215 -194.5 -363t-436.5 -148t-388 134t-146 332zM480 644q0 -57 22.5 -160.5t53.5 -184.5t101 -81q89 0 89 113q0 84 -22.5 191t-55 174.5t-84 68.5 t-78 -31.5t-26.5 -89.5z" />
<glyph unicode="&#xf1;" horiz-adv-x="1374" d="M20 778.5q0 39.5 35 65t137 62.5q235 83 314 83q30 0 50.5 -22t20.5 -52l-2 -39q0 -48 40 -48q24 0 51 38q86 124 250 124q126 0 202.5 -56.5t101.5 -120t31 -186.5l14 -352q2 -40 12.5 -59t61.5 -73q15 -16 15 -45q0 -66 -79 -92t-249.5 -26t-228.5 24.5t-58 80.5 q0 20 6 29.5t43 49t37 227.5t-29 247.5t-97.5 59.5t-93.5 -43t-25 -156v-198q0 -59 7.5 -81t49.5 -85q11 -18 11 -41q0 -115 -338 -115q-278 0 -278 115q0 24 8.5 36.5t37.5 33.5t36 46q20 70 20 359q0 69 -10.5 90.5t-57 50.5t-46.5 68.5zM290 1221.5q0 55.5 24 102.5 q51 96 169 96q53 0 96 -14.5t129.5 -58t117.5 -43.5q25 0 30.5 37.5t8.5 45.5t23.5 24t64.5 16q130 0 130 -132q0 -86 -50.5 -138.5t-133.5 -52.5q-73 0 -148 34.5t-132.5 58.5t-68.5 29.5t-25 5.5q-23 0 -23 -26v-27q0 -36 -27 -57.5t-74 -21.5t-79 33t-32 88.5z" />
<glyph unicode="&#xf2;" horiz-adv-x="1233" d="M34 465q0 224 180 378t443 154q183 0 321 -95q99 -68 160 -179.5t61 -235.5q0 -217 -194.5 -365.5t-436.5 -148.5t-388 134t-146 358zM260 1321q0 47 68 78t155 31t132.5 -16.5t45.5 -42.5l-15 -45q0 -14 10 -24.5t57.5 -46t58 -49t10.5 -40.5q0 -74 -103 -74 q-183 0 -334 117q-85 65 -85 112zM480 644q0 -57 22.5 -160.5t53.5 -184.5t101 -81q89 0 89 113q0 84 -22.5 191t-55 174.5t-84 68.5t-78 -31.5t-26.5 -89.5z" />
<glyph unicode="&#xf3;" horiz-adv-x="1233" d="M34 465q0 224 180 378t443 154q183 0 321 -95q99 -68 160 -179.5t61 -235.5q0 -217 -194.5 -365.5t-436.5 -148.5t-388 134t-146 358zM451 1166q0 27 10.5 40.5t58 49t57.5 46t10 24.5l-16 45q0 25 45 41.5t126.5 17t134.5 -19.5q184 -70 11 -201q-151 -117 -334 -117 q-103 0 -103 74zM480 644q0 -57 22.5 -160.5t53.5 -184.5t101 -81q89 0 89 113q0 84 -22.5 191t-55 174.5t-84 68.5t-78 -31.5t-26.5 -89.5z" />
<glyph unicode="&#xf4;" horiz-adv-x="1233" d="M34 465q0 224 180 378t443 154q183 0 321 -95q99 -68 160 -179.5t61 -235.5q0 -217 -194.5 -365.5t-436.5 -148.5t-388 134t-146 358zM240 1171.5q0 34.5 33 73t115 100.5q155 117 223 117q33 0 107 -41.5t148 -99.5t100.5 -90t26.5 -61.5t-22 -52.5t-57 -23t-116 39 q-150 72 -186 72t-142 -56.5t-146.5 -56.5t-62 22.5t-21.5 57zM480 644q0 -57 22.5 -160.5t53.5 -184.5t101 -81q89 0 89 113q0 84 -22.5 191t-55 174.5t-84 68.5t-78 -31.5t-26.5 -89.5z" />
<glyph unicode="&#xf5;" horiz-adv-x="1233" d="M34 465q0 224 180 378t443 154q183 0 321 -95q99 -68 160 -179.5t61 -235.5q0 -217 -194.5 -365.5t-436.5 -148.5t-388 134t-146 358zM220 1221.5q0 55.5 24 102.5q51 96 169 96q53 0 96 -14.5t129.5 -58t117.5 -43.5q25 0 30.5 37.5t8.5 45.5t23.5 24t64.5 16 q130 0 130 -132q0 -86 -50.5 -138.5t-133.5 -52.5q-73 0 -148 34.5t-132.5 58.5t-68.5 29.5t-25 5.5q-23 0 -23 -26v-27q0 -36 -27 -57.5t-74 -21.5t-79 33t-32 88.5zM480 644q0 -57 22.5 -160.5t53.5 -184.5t101 -81q89 0 89 113q0 84 -22.5 191t-55 174.5t-84 68.5 t-78 -31.5t-26.5 -89.5z" />
<glyph unicode="&#xf6;" horiz-adv-x="1233" d="M34 465q0 224 180 378t443 154q183 0 321 -95q99 -68 160 -179.5t61 -235.5q0 -217 -194.5 -365.5t-436.5 -148.5t-388 134t-146 358zM155 1267q0 73 64 120.5t159 47.5t139.5 -36.5t44.5 -110t-77 -123t-162 -49.5t-126.5 39t-41.5 112zM480 644q0 -57 22.5 -160.5 t53.5 -184.5t101 -81q89 0 89 113q0 84 -22.5 191t-55 174.5t-84 68.5t-78 -31.5t-26.5 -89.5zM671 1264q0 73 63.5 120.5t158.5 47.5t140 -36.5t45 -110t-77 -123t-162 -49.5t-126.5 39t-41.5 112z" />
<glyph unicode="&#xf7;" d="M123 501.5q0 16.5 21.5 78t42 98t61.5 36.5l193 -11h506q78 0 96.5 2.5t23.5 2.5q39 0 39 -40q0 -22 -17 -77.5t-38 -95.5t-54 -40l-159 14h-448l-221 -7q-19 0 -32.5 11.5t-13.5 28zM464 228.5q0 62.5 44.5 107t108 44.5t107 -44t43.5 -109t-45 -107.5t-107 -42.5 t-106.5 44.5t-44.5 107zM464 941.5q0 62.5 44.5 107t108 44.5t107 -44t43.5 -108.5t-45 -107.5t-107 -43t-106.5 44.5t-44.5 107z" />
<glyph unicode="&#xf8;" horiz-adv-x="1233" d="M-2 90.5q0 21.5 21 37.5l54 40q23 18 23 27t-11 29q-51 95 -51 234q0 234 176.5 386t438.5 152q215 0 347 -109q20 -16 28.5 -16t21.5 9l70 52q17 13 34.5 13t37.5 -23.5t20 -45.5t-24 -40l-61 -46q-13 -10 -13 -18t9 -22q80 -118 80 -258q0 -229 -195.5 -374t-420 -145 t-377.5 109q-17 12 -26 12t-33 -18l-59 -43q-13 -9 -31 -9t-38.5 22.5t-20.5 44zM482 657l12 -121q4 -39 22 -39q7 0 24 13l132 96q18 13 18 25t-14 48q-34 87 -104 87q-40 0 -65 -30t-25 -79zM541 343q0 -20 34.5 -72t80.5 -52q92 0 92 114q0 53 -8.5 105t-18 52t-30.5 -16 l-131 -98q-19 -13 -19 -33z" />
<glyph unicode="&#xf9;" horiz-adv-x="1388" d="M20 845q0 76 115 101q196 43 392 43q59 0 59 -50v-542q0 -174 115 -174q29 0 57 16.5t44.5 52.5t16.5 201t-7.5 207.5t-17.5 54t-38 26.5q-57 30 -57 76q0 62 98 86q186 46 367 46q101 0 101 -107l-4 -162v-441q0 -34 53.5 -60t53.5 -72q0 -90 -213 -139 q-125 -29 -207.5 -29t-100 11t-20.5 43q-5 62 -38 62q-12 0 -22 -5.5t-61 -40.5q-101 -69 -217 -69q-192 0 -271 111q-67 93 -67 313q0 82 0.5 128t0.5 95q0 113 -72 153q-39 20 -49.5 32t-10.5 33zM337 1321q0 47 68 78t155 31t132.5 -16.5t45.5 -42.5l-15 -45 q0 -14 10 -24.5t57.5 -46t58 -49t10.5 -40.5q0 -74 -103 -74q-183 0 -334 117q-85 65 -85 112z" />
<glyph unicode="&#xfa;" horiz-adv-x="1388" d="M20 845q0 76 115 101q196 43 392 43q59 0 59 -50v-542q0 -174 115 -174q29 0 57 16.5t44.5 52.5t16.5 201t-7.5 207.5t-17.5 54t-38 26.5q-57 30 -57 76q0 62 98 86q186 46 367 46q101 0 101 -107l-4 -162v-441q0 -34 53.5 -60t53.5 -72q0 -90 -213 -139 q-125 -29 -207.5 -29t-100 11t-20.5 43q-5 62 -38 62q-12 0 -22 -5.5t-61 -40.5q-101 -69 -217 -69q-192 0 -271 111q-67 93 -67 313q0 82 0.5 128t0.5 95q0 113 -72 153q-39 20 -49.5 32t-10.5 33zM528 1166q0 27 10.5 40.5t58 49t57.5 46t10 24.5l-16 45q0 25 45 41.5 t126.5 17t134.5 -19.5q184 -70 11 -201q-151 -117 -334 -117q-103 0 -103 74z" />
<glyph unicode="&#xfb;" horiz-adv-x="1388" d="M20 845q0 76 115 101q196 43 392 43q59 0 59 -50v-542q0 -174 115 -174q29 0 57 16.5t44.5 52.5t16.5 201t-7.5 207.5t-17.5 54t-38 26.5q-57 30 -57 76q0 62 98 86q186 46 367 46q101 0 101 -107l-4 -162v-441q0 -34 53.5 -60t53.5 -72q0 -90 -213 -139 q-125 -29 -207.5 -29t-100 11t-20.5 43q-5 62 -38 62q-12 0 -22 -5.5t-61 -40.5q-101 -69 -217 -69q-192 0 -271 111q-67 93 -67 313q0 82 0.5 128t0.5 95q0 113 -72 153q-39 20 -49.5 32t-10.5 33zM324 1171.5q0 34.5 33 73t115 100.5q155 117 223 117q33 0 107 -41.5 t148 -99.5t100.5 -90t26.5 -61.5t-22 -52.5t-57 -23t-116 39q-150 72 -186 72t-142 -56.5t-146.5 -56.5t-62 22.5t-21.5 57z" />
<glyph unicode="&#xfc;" horiz-adv-x="1388" d="M20 845q0 76 115 101q196 43 392 43q59 0 59 -50v-542q0 -174 115 -174q29 0 57 16.5t44.5 52.5t16.5 201t-7.5 207.5t-17.5 54t-38 26.5q-57 30 -57 76q0 62 98 86q186 46 367 46q101 0 101 -107l-4 -162v-441q0 -34 53.5 -60t53.5 -72q0 -90 -213 -139 q-125 -29 -207.5 -29t-100 11t-20.5 43q-5 62 -38 62q-12 0 -22 -5.5t-61 -40.5q-101 -69 -217 -69q-192 0 -271 111q-67 93 -67 313q0 82 0.5 128t0.5 95q0 113 -72 153q-39 20 -49.5 32t-10.5 33zM232 1267q0 73 64 120.5t159 47.5t139.5 -36.5t44.5 -110t-77 -123 t-162 -49.5t-126.5 39t-41.5 112zM748 1264q0 73 63.5 120.5t158.5 47.5t140 -36.5t45 -110t-77 -123t-162 -49.5t-126.5 39t-41.5 112z" />
<glyph unicode="&#xfd;" horiz-adv-x="1268" d="M0 848q0 142 446 142q249 0 249 -121q0 -25 -22.5 -58t-22.5 -57q0 -39 46.5 -124t76.5 -85t63 61.5t33 113t-31.5 88.5t-31.5 69q0 51 68 81.5t182 30.5q212 0 212 -102q0 -37 -21.5 -59.5t-74 -41.5t-88.5 -73.5t-93 -208.5l-132 -363q-92 -252 -216.5 -371t-290 -119 t-247 69t-81.5 154t49.5 137.5t121.5 52.5t116 -48q21 -22 28 -39t21 -75q11 -44 46 -44t56 27t21 70.5t-52 153.5l-241 513q-38 80 -57 100t-61 38q-72 32 -72 88zM468 1166q0 27 10.5 40.5t58 49t57.5 46t10 24.5l-16 45q0 25 45 41.5t126.5 17t134.5 -19.5 q184 -70 11 -201q-151 -117 -334 -117q-103 0 -103 74z" />
<glyph unicode="&#xfe;" horiz-adv-x="1363" d="M20 1132q0 41 48.5 79.5t197.5 96t285 57.5q42 0 55 -11.5t13 -50.5v-376q0 -36 23 -36q11 0 61 33.5t116.5 53t120.5 19.5q127 0 215 -77q174 -154 174 -405q0 -166 -82.5 -305t-218.5 -201q-80 -36 -165.5 -36t-175.5 40q-18 8 -29 8q-30 0 -30 -69.5t51 -103.5 t60 -45.5t9 -38.5q0 -60 -67 -92.5t-189 -32.5q-217 0 -380 87q-83 44 -83 109q0 30 12.5 45.5t57 36t56 83.5t17.5 362v403q-8 222 -15.5 240.5t-15 21.5t-44.5 9.5t-57 30.5t-20 65zM611 297.5q0 -23.5 27 -42.5t72 -19q138 0 138 228q0 147 -58 207q-36 37 -86 37 q-71 0 -77 -95l-15 -275q-1 -17 -1 -40.5z" />
<glyph unicode="&#xff;" horiz-adv-x="1268" d="M0 848q0 142 446 142q249 0 249 -121q0 -25 -22.5 -58t-22.5 -57q0 -39 46.5 -124t76.5 -85t63 61.5t33 113t-31.5 88.5t-31.5 69q0 51 68 81.5t182 30.5q212 0 212 -102q0 -37 -21.5 -59.5t-74 -41.5t-88.5 -73.5t-93 -208.5l-132 -363q-92 -252 -216.5 -371t-290 -119 t-247 69t-81.5 154t49.5 137.5t121.5 52.5t116 -48q21 -22 28 -39t21 -75q11 -44 46 -44t56 27t21 70.5t-52 153.5l-241 513q-38 80 -57 100t-61 38q-72 32 -72 88zM213 1267q0 73 64 120.5t159 47.5t139.5 -36.5t44.5 -110t-77 -123t-162 -49.5t-126.5 39t-41.5 112z M729 1264q0 73 63.5 120.5t158.5 47.5t140 -36.5t45 -110t-77 -123t-162 -49.5t-126.5 39t-41.5 112z" />
<glyph unicode="&#x152;" horiz-adv-x="2218" d="M48 712q0 198 117.5 369.5t312.5 249.5q138 55 281 55l321 -18h657q88 0 132.5 6t78 18.5t51.5 12.5q58 0 91.5 -50t54 -119t20.5 -125.5t-30.5 -92.5t-82 -36t-90 58.5t-58.5 76.5q-62 56 -264 56q-94 0 -119 -18t-30 -39t-5 -79v-161q0 -38 6 -51q12 -29 114 -29 q62 0 78 43q5 11 12 65q15 105 90 105q117 0 117 -294q0 -170 -52 -263q-31 -55 -72 -55t-56.5 21t-19.5 73q-10 113 -123 113q-53 0 -70 -27.5t-17 -150t27 -185.5q11 -26 51.5 -34.5t133 -8.5t125.5 10q90 27 165 166q47 85 115 85q43 0 69 -31t26 -88t-26.5 -133.5 t-78 -155t-106.5 -78.5q-17 0 -62.5 14t-84.5 13h-857q-48 0 -112.5 -8t-117.5 -8q-259 0 -445 150q-99 80 -168 204q-99 176 -99 374zM528 898q0 -154 60 -320q112 -311 268 -311q75 0 122 58t47 162.5t-39 245.5q-105 374 -293 377q-73 0 -119 -59t-46 -153z" />
<glyph unicode="&#x153;" horiz-adv-x="1811" d="M34 450q0 270 217 427q163 119 406 119q166 0 307 -85q9 -5 15 -5t19 8q133 83 311.5 83t311.5 -104q163 -127 163 -294q0 -64 -23.5 -107.5t-70.5 -43.5h-469q-34 0 -34 -22q0 -53 60.5 -118.5t168 -65.5t207.5 67q28 18 48 18t46.5 -36t26.5 -69t-30.5 -73t-80.5 -73 q-158 -103 -345 -103q-83 0 -174.5 24.5t-123.5 48.5t-40.5 24t-46.5 -24t-140 -48.5t-196 -24.5q-210 0 -351 107q-182 139 -182 370zM483 650.5q0 -56.5 19.5 -158t39.5 -162.5q39 -112 117 -112q85 0 85 126q0 90 -27 208.5t-58.5 166.5t-79 49t-72 -30t-24.5 -87.5z M1184 703q0 -45 13.5 -54.5t68.5 -9.5h81q64 0 64 48q0 59 -29.5 95.5t-79.5 36.5t-84 -35.5t-34 -80.5z" />
<glyph unicode="&#x178;" horiz-adv-x="1597" d="M0 1260q0 67 101 96.5t317.5 29.5t291.5 -15q132 -26 132 -102q0 -26 -27 -60t-27 -61t47 -92t74 -65t47 15.5t55.5 60t35.5 68t-4.5 32.5t-28.5 37.5t-24 67.5q0 113 306 113q173 0 215.5 -13t64 -41t21.5 -64.5t-25 -57.5t-84.5 -32t-101.5 -43.5t-166 -166 t-157.5 -203t-33.5 -196.5t7 -207t21 -103.5t58 -46.5q73 -38 73 -95q0 -136 -402 -136q-165 0 -300.5 29.5t-135.5 109.5q0 62 76 89q57 20 71 51q32 69 32 326q0 80 -16 124.5t-99.5 153.5t-203.5 227q-52 51 -110 72.5t-79 39.5t-21 58zM342 1636q0 68 63 116 q97 75 235 74q65 -1 108 -37t43 -108.5t-72 -119.5q-102 -66 -225 -66q-68 0 -110 36.5t-42 104.5zM915 1650q0 68 63 116q97 75 235 74q65 -1 108 -36.5t43 -109t-72 -119.5q-103 -66 -225 -66q-68 0 -110 36.5t-42 104.5z" />
<glyph unicode="&#x2c6;" horiz-adv-x="1024" d="M135 1171.5q0 34.5 33 73t115 100.5q155 117 223 117q33 0 107 -41.5t148 -99.5t100.5 -90t26.5 -61.5t-22 -52.5t-57 -23t-116 39q-150 72 -186 72t-142 -56.5t-146.5 -56.5t-62 22.5t-21.5 57z" />
<glyph unicode="&#x2dc;" horiz-adv-x="1024" d="M116 1221.5q0 55.5 24 102.5q51 96 169 96q53 0 96 -14.5t129.5 -58t117.5 -43.5q25 0 30.5 37.5t8.5 45.5t23.5 24t64.5 16q130 0 130 -132q0 -86 -50.5 -138.5t-133.5 -52.5q-73 0 -148 34.5t-132.5 58.5t-68.5 29.5t-25 5.5q-23 0 -23 -26v-27q0 -36 -27 -57.5 t-74 -21.5t-79 33t-32 88.5z" />
<glyph unicode="&#x2000;" horiz-adv-x="940" />
<glyph unicode="&#x2001;" horiz-adv-x="1880" />
<glyph unicode="&#x2002;" horiz-adv-x="940" />
<glyph unicode="&#x2003;" horiz-adv-x="1880" />
<glyph unicode="&#x2004;" horiz-adv-x="626" />
<glyph unicode="&#x2005;" horiz-adv-x="470" />
<glyph unicode="&#x2006;" horiz-adv-x="313" />
<glyph unicode="&#x2007;" horiz-adv-x="313" />
<glyph unicode="&#x2008;" horiz-adv-x="235" />
<glyph unicode="&#x2009;" horiz-adv-x="376" />
<glyph unicode="&#x200a;" horiz-adv-x="104" />
<glyph unicode="&#x2010;" horiz-adv-x="582" d="M0 404q0 32 23.5 108t48 120.5t46 62.5t56.5 19l238 -16q65 0 96.5 5t42.5 5q31 0 31 -44q0 -102 -68 -240q-24 -47 -40.5 -64t-37 -17t-80 10t-175.5 10l-140 -7q-41 0 -41 48z" />
<glyph unicode="&#x2011;" horiz-adv-x="582" d="M0 404q0 32 23.5 108t48 120.5t46 62.5t56.5 19l238 -16q65 0 96.5 5t42.5 5q31 0 31 -44q0 -102 -68 -240q-24 -47 -40.5 -64t-37 -17t-80 10t-175.5 10l-140 -7q-41 0 -41 48z" />
<glyph unicode="&#x2012;" horiz-adv-x="582" d="M0 404q0 32 23.5 108t48 120.5t46 62.5t56.5 19l238 -16q65 0 96.5 5t42.5 5q31 0 31 -44q0 -102 -68 -240q-24 -47 -40.5 -64t-37 -17t-80 10t-175.5 10l-140 -7q-41 0 -41 48z" />
<glyph unicode="&#x2013;" d="M45 414.5q0 24.5 31 114t54 131.5q37 67 97 67q17 0 100.5 -8.5t182.5 -8.5h442q114 0 141.5 4t43 4t32 -16.5t16.5 -45.5t-25 -110.5t-55.5 -140t-79.5 -58.5l-232 20h-358q-181 0 -245 -5t-85 -5t-40.5 16.5t-19.5 41z" />
<glyph unicode="&#x2014;" horiz-adv-x="1749" d="M0 414.5q0 24.5 31 114t54 131.5q37 67 97 67q17 0 100.5 -8.5t182.5 -8.5h1051q114 0 141.5 4t43 4t32 -16.5t16.5 -45.5t-25 -111t-55.5 -140t-79.5 -58l-232 20h-967q-181 0 -245 -5t-85 -5t-40.5 16.5t-19.5 41z" />
<glyph unicode="&#x2018;" horiz-adv-x="614" d="M86 863q0 241 233 472q57 57 103.5 57.5t75 -19.5t28.5 -39.5t-19 -39.5q-65 -65 -90.5 -108.5t-25.5 -82t33 -64.5q65 -50 91 -96t26 -126.5t-63 -146t-163.5 -65.5t-164.5 78.5t-64 179.5z" />
<glyph unicode="&#x2019;" horiz-adv-x="615" d="M73 1155.5q0 106.5 62.5 171t163.5 65t165 -77.5t64 -188.5t-61.5 -235t-171.5 -228.5q-61 -57 -105.5 -57t-73 19.5t-28.5 39.5t42 62q93 95 93 175q0 32 -49 69q-101 79 -101 185.5z" />
<glyph unicode="&#x201a;" horiz-adv-x="614" d="M56 212.5q0 101.5 66 173.5t169 72q49 0 97 -23.5t80 -63.5q76 -95 76 -240q0 -80 -29.5 -179.5t-77.5 -180.5q-79 -132 -165 -132q-38 0 -68.5 23t-30.5 46t31 72q65 104 65 150.5t-34 59.5q-67 25 -95 49q-84 72 -84 173.5z" />
<glyph unicode="&#x201c;" horiz-adv-x="1145" d="M86 863q0 241 233 472q57 57 103.5 57.5t75 -19.5t28.5 -39.5t-19 -39.5q-65 -65 -90.5 -108.5t-25.5 -82t33 -64.5q65 -50 91 -96t26 -126.5t-63 -146t-163.5 -65.5t-164.5 78.5t-64 179.5zM616 863q0 241 233 472q57 57 103.5 57.5t75 -19.5t28.5 -39.5t-20 -39.5 q-64 -65 -89.5 -108.5t-25.5 -82t33 -64.5q65 -50 91 -96t26 -126.5t-63 -146t-163.5 -65.5t-164.5 78.5t-64 179.5z" />
<glyph unicode="&#x201d;" horiz-adv-x="1145" d="M73 1155.5q0 106.5 62 171t163.5 65t165.5 -77.5t64 -188.5t-61.5 -235t-171.5 -228.5q-61 -57 -105.5 -57t-73 19.5t-28.5 39.5t42 62q93 95 93 175q0 32 -49 69q-101 79 -101 185.5zM603 1181q0 81 62 145.5t163.5 65t165.5 -77.5t64 -188.5t-61 -235t-171 -228.5 q-61 -57 -105.5 -57t-73 19.5t-28.5 39.5t19 39q65 67 90 110t25 81.5t-34 63.5q-63 49 -89.5 95.5t-26.5 127.5z" />
<glyph unicode="&#x201e;" horiz-adv-x="1145" d="M73 198q0 99 62.5 163.5t163.5 65t165 -77.5t64 -189t-61.5 -235.5t-171.5 -228.5q-61 -57 -105.5 -57t-73 19.5t-28.5 39.5t20 40q64 65 89.5 108.5t25.5 82t-34 64.5q-64 50 -90 96t-26 109zM603 216q0 81 62 145.5t163.5 65t165.5 -77.5t64 -189t-61 -235.5 t-171 -228.5q-61 -57 -105.5 -57t-73 19.5t-28.5 39.5t19 40q65 66 90 109t25 81.5t-34 64.5q-63 49 -89.5 95.5t-26.5 127.5z" />
<glyph unicode="&#x2022;" horiz-adv-x="1365" d="M401 695q0 119 84 201t200.5 82t200 -83t83.5 -201t-83 -201t-201 -83t-201 83t-83 202z" />
<glyph unicode="&#x2026;" horiz-adv-x="1843" d="M72 210q0 103 70.5 168.5t165.5 66t165.5 -66t70.5 -169t-70.5 -169.5t-165.5 -67t-165.5 67t-70.5 170zM686 210q0 103 70.5 168.5t165.5 66t165.5 -66t70.5 -169t-70.5 -169.5t-165.5 -67t-165.5 67t-70.5 170zM1301 210q0 103 70.5 168t165.5 66t165.5 -65.5 t70.5 -169.5t-70.5 -169.5t-165.5 -66.5t-165.5 67t-70.5 170z" />
<glyph unicode="&#x202f;" horiz-adv-x="376" />
<glyph unicode="&#x2039;" horiz-adv-x="570" d="M27 534q0 44 36 98.5t132.5 156t151 143t93.5 41.5t68 -25.5t29 -55t-15.5 -58t-89 -138t-73.5 -152t27 -91t138 -219.5q19 -29 19 -61t-27.5 -59.5t-63.5 -27.5t-116 60.5t-194.5 183t-114.5 204.5z" />
<glyph unicode="&#x203a;" horiz-adv-x="570" d="M27 169q0 28 13 52t92 145t79 170.5t-73.5 160t-89 138.5t-15.5 58t29 55t69.5 25t104.5 -51t157.5 -153.5t121.5 -148t28 -86.5q0 -90 -176.5 -269t-252.5 -179q-33 0 -60 27.5t-27 55.5z" />
<glyph unicode="&#x205f;" horiz-adv-x="470" />
<glyph unicode="&#x20ac;" d="M20 444q0 50 29 58t146 8q-5 43 -5 65v17h-79q-91 0 -91 78q0 53 34 59t153 6q44 202 180.5 310t345.5 108q93 0 186 -37q30 -12 43 -12t36 10t38 10q54 0 112 -84.5t58 -143.5t-25.5 -91.5t-71.5 -32.5t-124.5 77t-178 77t-141 -49t-47.5 -136q69 2 248 2 q53 0 72.5 -18.5t19.5 -53.5t-16.5 -51t-71.5 -16q-178 0 -249 -2q2 -29 10 -86q66 2 235 2q53 0 72.5 -18.5t19.5 -52.5t-15.5 -50t-83.5 -16t-187 -4q78 -174 248 -174q78 0 122 15t81.5 48t57 33t34 -21.5t14.5 -66.5t-34 -96.5t-85 -65.5q-13 -3 -61 -23 q-127 -53 -305 -53t-319.5 104.5t-201.5 289.5h-112q-91 0 -91 77z" />
<glyph unicode="&#x2122;" horiz-adv-x="1948" d="M0 1173q0 56 51 131.5t101 75.5l129 -15h316q50 1 81 9.5t44 8.5q48 0 94 -72t46 -132q0 -110 -89 -110q-60 0 -102 76q-20 37 -31 48.5t-28 11.5q-41 0 -41 -80v-335q0 -52 10.5 -75.5t42 -36.5t43 -25.5t11.5 -34.5q0 -85 -259.5 -85t-259.5 91q0 21 11.5 30.5t43.5 19 t41 28.5q27 57 27 404q0 100 -36 100q-23 0 -54 -46q-62 -92 -118 -92q-32 0 -53 24.5t-21 80.5zM877 599q0 17 7.5 24.5t33 20t32.5 27.5q27 58 27 404q0 91 -9.5 120.5t-48 48t-38.5 51.5q0 82 203 82q81 0 108 -12t52 -58l124 -230q20 -36 28 -45t22 -9q22 0 43 42 l85 165q17 33 21 41q32 67 67.5 86.5t122.5 19.5q171 0 171 -77q0 -29 -30.5 -51.5t-37.5 -62.5q-14 -83 -14 -220t9 -207.5t16.5 -81t33.5 -27.5t26 -41q0 -41 -49 -58t-165 -17q-206 0 -206 69q0 22 44 58q16 13 21.5 49t5.5 103t-4.5 82t-20 15t-31 -23t-47.5 -93 l-72 -161q-31 -69 -54 -69q-30 0 -93 145l-80 178q-16 37 -33 37t-22 -30.5t-5 -116.5t7.5 -103t47.5 -37q20 -11 20 -36q0 -67 -159 -67t-159 65z" />
<glyph unicode="&#xe000;" horiz-adv-x="990" d="M0 0v990h990v-990h-990z" />
</font>
</defs>
</svg>
